<?xml version="1.0" encoding="utf-8"?>
<!-- Generator: Adobe Illustrator 21.0.0, SVG Export Plug-In . SVG Version: 6.00 Build 0)  -->
<svg version="1.1" id="Layer_1" xmlns="http://www.w3.org/2000/svg" xmlns:xlink="http://www.w3.org/1999/xlink" x="0px" y="0px"
	 viewBox="0 0 82 82" style="enable-background:new 0 0 82 82;" xml:space="preserve">
<style type="text/css">
	.st0{fill:none;stroke:#FFFFFF;stroke-width:0.7921;stroke-miterlimit:10;}
	.st1{fill:#FFFFFF;stroke:#FFFFFF;stroke-width:0.5695;stroke-miterlimit:10;}
	.st2{fill:none;stroke:#FFFFFF;stroke-width:2.6125;stroke-miterlimit:10;}
	.st3{fill:#FFFFFF;stroke:#FFFFFF;stroke-width:1.8783;stroke-miterlimit:10;}
</style>
<circle class="st0" cx="-255.5" cy="35.1" r="11.9"/>
<circle class="st0" cx="-215.1" cy="35.1" r="11.9"/>
<circle class="st0" cx="-175.5" cy="35.1" r="11.9"/>
<circle class="st0" cx="-138.3" cy="35.1" r="11.9"/>
<circle class="st0" cx="-101.8" cy="35.1" r="11.9"/>
<path class="st1" d="M-140.7,36.4c1.3-1.2,2.6-2.4,3.8-3.6c0-0.1-0.1-0.1-0.1-0.2c-0.7,0.4-1.5,0.9-2.2,1.3
	c-0.6,0.4-1.2,0.6-1.8,1.1c-1.3,1.2-2.5,0.3-3.8-0.2c3.2-1.6,6.5-2.7,10-4.1c-0.2,1.2-0.4,2.1-0.5,3.1c-0.3,1.6-0.6,3.2-0.9,4.8
	c-0.1,0.7-0.5,1.1-1.1,0.6C-138.4,38.3-139.5,37.4-140.7,36.4z"/>
<path class="st1" d="M-107,31c1.3,1.3,2.6,2.2,4.3,2.3c0.1-0.4,0.2-0.8,0.3-1.2c0.6-1.4,2.1-1.9,3.4-1.2c0.5,0.3,1,0.4,1.7,0.6
	c0,0-0.1,0.2-0.2,0.5c0.2,0,0.5-0.1,0.8-0.1c-0.1,0.2-0.2,0.4-0.3,0.4c-0.7,0.4-0.9,1.1-1,1.9c-0.6,4.5-5.2,6.7-9.3,4.4
	c0.9-0.3,1.7-0.6,2.7-0.9c-1.7-1-2-1.4-1.4-1.8c-0.3-0.4-0.8-0.7-1-1.1c-0.2-0.3-1-0.7,0-1.2c0.1,0-0.1-0.5-0.1-0.8
	C-107.1,32.4-107,31.8-107,31z"/>
<g>
	<g id="OWeILb_5_">
		<g>
			<g>
				<path class="st1" d="M-214.6,29.7c0.2,0,0.4,0.1,0.6,0.1c1.9,0.3,3.4,1.2,4.5,2.8c0.4,0.5,0.7,1.1,0.9,1.7
					c0.1,0.3,0,0.6-0.2,0.9c-0.7,0.8-1.4,1.5-2.3,2.1c0,0,0,0,0,0c0-0.1,0-0.1,0-0.2c0-1.2,0-2.5,0-3.8c0-0.5-0.2-0.7-0.7-0.7
					c-0.2,0-0.5,0-0.8,0c-0.4,0-0.6,0.2-0.6,0.7c0,1.6,0,3.1,0,4.7c0,0.5-0.2,0.7-0.7,0.8c0-0.1,0-0.1,0-0.2c0-1.3,0-2.5,0-3.8
					c0-0.5-0.2-0.7-0.7-0.7c-0.2,0-0.5,0-0.7,0c-0.4,0-0.7,0.2-0.7,0.7c0,1.4,0,2.8,0,4.2c0,0.5-0.1,0.6-0.6,0.7c-0.1,0-0.1,0-0.2,0
					c0-0.1,0-0.1,0-0.2c0-1.1,0-2.2,0-3.3c0-0.5-0.2-0.7-0.7-0.7c-0.2,0-0.5,0-0.8,0c-0.4,0-0.6,0.2-0.6,0.6c0,1.1,0,2.3,0,3.4
					c0,0.4-0.1,0.6-0.5,0.6c-0.2,0-0.4,0-0.6,0.1c-0.3,0-0.6-0.1-0.8-0.4c-0.5-0.9-0.8-1.8-0.9-2.8c0-0.1,0-0.1,0-0.2
					c0-0.3,0-0.6,0-0.8c0,0,0-0.1,0-0.1c0.1-0.9,0.3-1.8,0.8-2.6c1.1-2,2.7-3.1,4.9-3.5c0.2,0,0.5-0.1,0.7-0.1
					C-215.1,29.7-214.9,29.7-214.6,29.7z"/>
			</g>
		</g>
	</g>
</g>
<g>
	<g id="kqEnyu_5_">
		<g>
			<path class="st1" d="M-177.3,30.4c-0.4,0.1-0.9,0.2-1.3,0.4s-0.8,0.3-1.2,0.5c-0.2,0.1-0.3,0.2-0.2,0.5c0.1,0.2,0.3,0.2,0.5,0.1
				c2.4-1.2,4.8-1.2,7.2,0c0.2,0.1,0.4,0.2,0.5-0.1s0-0.3-0.2-0.5c-0.7-0.4-1.4-0.7-2.2-0.8c-0.1,0-0.1,0-0.2,0c0,0,0,0,0,0
				c0.1-0.3,0.2-0.4,0.5-0.4c0.8,0.1,1.6,0.3,2.4,0.7c0.5,0.2,0.8,0.6,1,1c0.5,1.2,0.9,2.3,1.2,3.6c0.1,0.8,0.2,1.5,0.3,2.3
				c0,0.3-0.1,0.6-0.3,0.8c-0.4,0.5-1,0.9-1.6,1.1c-0.6,0.2-1.2,0.3-1.7,0.5c-0.2,0.1-0.4,0-0.5-0.2c-0.1-0.2-0.3-0.4-0.4-0.6
				c0.4-0.2,0.8-0.3,1.2-0.5c0.3-0.2,0.6-0.4,0.9-0.6c0.2-0.1,0.2-0.3,0.1-0.5c-0.1-0.2-0.3-0.1-0.4,0c-2.3,1.5-4.8,1.5-7.3,0.5
				c-0.3-0.1-0.5-0.3-0.8-0.5c-0.2-0.1-0.3-0.1-0.5,0c-0.1,0.2-0.1,0.3,0.1,0.4c0.6,0.3,1.2,0.6,1.8,0.9c0.1,0,0.2,0.1,0.4,0.1
				c-0.2,0.3-0.4,0.5-0.6,0.7c-0.1,0.1-0.2,0.1-0.3,0.1c-1.1-0.1-2.1-0.4-2.9-1.1c-0.1-0.1-0.2-0.2-0.3-0.2
				c-0.4-0.3-0.5-0.7-0.5-1.3c0.2-1.9,0.6-3.6,1.3-5.4c0.3-0.7,0.8-1.2,1.5-1.5c0.7-0.2,1.3-0.4,2-0.5
				C-177.5,30-177.4,30.1-177.3,30.4z M-178.9,35.6C-178.9,35.7-178.9,35.7-178.9,35.6c0.1,0.1,0.1,0.2,0.1,0.2
				c0.1,0.4,0.3,0.8,0.7,0.9c0.4,0.1,0.7,0,1-0.2c0.5-0.5,0.5-1.3,0-1.8c-0.4-0.4-1.1-0.4-1.4,0C-178.7,35.1-178.8,35.4-178.9,35.6z
				 M-172.9,35.7c0-0.8-0.6-1.3-1.3-1.2c-0.5,0.1-0.8,0.6-0.8,1.2c0,0.6,0.3,1,0.8,1.2C-173.5,37-172.9,36.4-172.9,35.7z"/>
		</g>
	</g>
</g>
<g id="dlQzeE_5_">
	<g>
		<path class="st1" d="M-257.4,29.3c1.4-0.4,2.8-0.4,4.3,0c0.4-0.5,0.9-1.1,1.7-1.2c0.3,0.6,0.3,1.2,0.2,1.8
			c-0.1,0.3-0.1,0.5,0.1,0.6c0,0,0.1,0.1,0.1,0.2c0.6,1.3,0.7,2.7,0.2,4c-0.4,1.2-1.4,1.7-2.6,2c-0.1,0-0.2,0.1-0.4,0.1
			c0,0-0.1,0-0.1,0c0.6,1.4,0.2,2.8,0.4,4.3c-1.2,0-2.3,0-3.5,0c0-0.5,0-1.1,0-1.6c-0.4,0-0.7,0-1,0c-0.9,0-1.5-0.5-2-1.2
			c-0.4-0.6-0.8-1.2-1.2-1.9c0.2,0,0.5,0,0.7,0.1c0.3,0.2,0.6,0.5,0.8,0.8c0.5,0.8,1.3,1.1,2.2,1c0.2,0,0.4-0.1,0.5-0.4
			c0-0.3,0.2-0.6,0.3-1c-0.4-0.1-0.8-0.2-1.3-0.4c-1.3-0.5-2.1-1.5-2.1-3c0-0.8-0.1-1.7,0.4-2.5c0.3-0.5,0.5-1,0.3-1.6
			c0-0.1,0-0.3,0-0.5c0.1-0.9,0.3-1,1.1-0.4C-258.1,28.7-257.8,29-257.4,29.3z"/>
	</g>
</g>
<circle class="st2" cx="40.8" cy="41.4" r="39.2"/>
<g>
	<g id="kqEnyu_1_">
		<g>
			<path class="st3" d="M34.8,26.1c-1.4,0.4-2.9,0.7-4.2,1.2c-1.4,0.5-2.6,1.1-3.9,1.7c-0.6,0.3-1.1,0.8-0.6,1.5
				c0.4,0.6,0.9,0.5,1.6,0.2c7.9-4.1,15.9-4.1,23.8,0c0.6,0.4,1.2,0.5,1.6-0.2c0.4-0.7-0.1-1.1-0.7-1.5c-2.3-1.3-4.7-2.1-7.2-2.6
				c-0.2-0.1-0.4-0.1-0.6-0.1c-0.1,0-0.1-0.1-0.1-0.1c0.2-1.1,0.5-1.4,1.6-1.2c2.8,0.4,5.4,1.1,7.9,2.4c1.5,0.8,2.6,1.9,3.4,3.4
				c1.8,3.8,3,7.7,3.8,11.8c0.4,2.5,0.6,5,0.9,7.5c0.1,1-0.2,1.9-0.9,2.6c-1.4,1.7-3.2,2.9-5.3,3.7c-1.9,0.6-3.8,1-5.7,1.5
				c-0.7,0.2-1.3-0.1-1.7-0.7c-0.4-0.7-0.9-1.4-1.4-2c1.4-0.6,2.7-1,4-1.6c1.1-0.5,2.1-1.2,3.1-1.9c0.6-0.4,0.7-0.9,0.3-1.5
				c-0.4-0.5-0.9-0.4-1.4-0.1c-7.7,4.9-15.8,4.9-24.1,1.6c-0.9-0.4-1.7-1-2.6-1.6c-0.6-0.4-1.1-0.4-1.5,0.1
				c-0.4,0.6-0.2,1.1,0.4,1.4c1.9,1,3.9,1.9,5.8,2.9c0.4,0.1,0.8,0.2,1.3,0.4c-0.6,0.9-1.2,1.7-1.9,2.4c-0.2,0.2-0.7,0.4-1,0.4
				c-3.5-0.4-6.8-1.4-9.7-3.6c-0.4-0.2-0.6-0.6-0.9-0.8c-1.2-1.1-1.7-2.4-1.6-4.2c0.5-6.2,1.9-12,4.2-17.8c1-2.4,2.6-4.1,5-4.9
				c2.1-0.7,4.4-1.3,6.7-1.8C34.1,24.7,34.4,24.9,34.8,26.1z M29.6,43.2c0.1,0.1,0.1,0.1,0.2,0.1c0,0.2,0,0.4,0,0.6
				c0.2,1.4,0.9,2.6,2.4,3.1c1.2,0.4,2.4,0.1,3.3-0.8c1.5-1.5,1.5-4.2,0-5.8c-1.4-1.4-3.5-1.4-4.7,0.1C30.2,41.4,30,42.4,29.6,43.2z
				 M49.2,43.3c0-2.5-2-4.3-4.2-3.8c-1.5,0.4-2.7,2.1-2.6,3.9c0,1.9,1.1,3.4,2.7,3.8C47.3,47.6,49.2,45.8,49.2,43.3z"/>
		</g>
	</g>
</g>
</svg>
