<?xml version="1.0" encoding="utf-8"?>
<!-- Generator: Adobe Illustrator 21.0.0, SVG Export Plug-In . SVG Version: 6.00 Build 0)  -->
<svg version="1.1" id="Layer_1" xmlns="http://www.w3.org/2000/svg" xmlns:xlink="http://www.w3.org/1999/xlink" x="0px" y="0px"
	 viewBox="0 0 82 82" style="enable-background:new 0 0 82 82;" xml:space="preserve">
<style type="text/css">
	.st0{fill:none;stroke:#FFFFFF;stroke-width:0.7921;stroke-miterlimit:10;}
	.st1{fill:#FFFFFF;stroke:#FFFFFF;stroke-width:0.5695;stroke-miterlimit:10;}
	.st2{fill:none;stroke:#FFFFFF;stroke-width:2.6333;stroke-miterlimit:10;}
	.st3{fill:#FFFFFF;stroke:#FFFFFF;stroke-width:1.8933;stroke-miterlimit:10;}
</style>
<circle class="st0" cx="-255.5" cy="35.1" r="11.9"/>
<circle class="st0" cx="-215.1" cy="35.1" r="11.9"/>
<circle class="st0" cx="-175.5" cy="35.1" r="11.9"/>
<circle class="st0" cx="-138.3" cy="35.1" r="11.9"/>
<circle class="st0" cx="-101.8" cy="35.1" r="11.9"/>
<path class="st1" d="M-140.7,36.4c1.3-1.2,2.6-2.4,3.8-3.6c0-0.1-0.1-0.1-0.1-0.2c-0.7,0.4-1.5,0.9-2.2,1.3
	c-0.6,0.4-1.2,0.6-1.8,1.1c-1.3,1.2-2.5,0.3-3.8-0.2c3.2-1.6,6.5-2.7,10-4.1c-0.2,1.2-0.4,2.1-0.5,3.1c-0.3,1.6-0.6,3.2-0.9,4.8
	c-0.1,0.7-0.5,1.1-1.1,0.6C-138.4,38.3-139.5,37.4-140.7,36.4z"/>
<path class="st1" d="M-107,31c1.3,1.3,2.6,2.2,4.3,2.3c0.1-0.4,0.2-0.8,0.3-1.2c0.6-1.4,2.1-1.9,3.4-1.2c0.5,0.3,1,0.4,1.7,0.6
	c0,0-0.1,0.2-0.2,0.5c0.2,0,0.5-0.1,0.8-0.1c-0.1,0.2-0.2,0.4-0.3,0.4c-0.7,0.4-0.9,1.1-1,1.9c-0.6,4.5-5.2,6.7-9.3,4.4
	c0.9-0.3,1.7-0.6,2.7-0.9c-1.7-1-2-1.4-1.4-1.8c-0.3-0.4-0.8-0.7-1-1.1c-0.2-0.3-1-0.7,0-1.2c0.1,0-0.1-0.5-0.1-0.8
	C-107.1,32.4-107,31.8-107,31z"/>
<g>
	<g id="OWeILb_5_">
		<g>
			<g>
				<path class="st1" d="M-214.6,29.7c0.2,0,0.4,0.1,0.6,0.1c1.9,0.3,3.4,1.2,4.5,2.8c0.4,0.5,0.7,1.1,0.9,1.7
					c0.1,0.3,0,0.6-0.2,0.9c-0.7,0.8-1.4,1.5-2.3,2.1c0,0,0,0,0,0c0-0.1,0-0.1,0-0.2c0-1.2,0-2.5,0-3.8c0-0.5-0.2-0.7-0.7-0.7
					c-0.2,0-0.5,0-0.8,0c-0.4,0-0.6,0.2-0.6,0.7c0,1.6,0,3.1,0,4.7c0,0.5-0.2,0.7-0.7,0.8c0-0.1,0-0.1,0-0.2c0-1.3,0-2.5,0-3.8
					c0-0.5-0.2-0.7-0.7-0.7c-0.2,0-0.5,0-0.7,0c-0.4,0-0.7,0.2-0.7,0.7c0,1.4,0,2.8,0,4.2c0,0.5-0.1,0.6-0.6,0.7c-0.1,0-0.1,0-0.2,0
					c0-0.1,0-0.1,0-0.2c0-1.1,0-2.2,0-3.3c0-0.5-0.2-0.7-0.7-0.7c-0.2,0-0.5,0-0.8,0c-0.4,0-0.6,0.2-0.6,0.6c0,1.1,0,2.3,0,3.4
					c0,0.4-0.1,0.6-0.5,0.6c-0.2,0-0.4,0-0.6,0.1c-0.3,0-0.6-0.1-0.8-0.4c-0.5-0.9-0.8-1.8-0.9-2.8c0-0.1,0-0.1,0-0.2
					c0-0.3,0-0.6,0-0.8c0,0,0-0.1,0-0.1c0.1-0.9,0.3-1.8,0.8-2.6c1.1-2,2.7-3.1,4.9-3.5c0.2,0,0.5-0.1,0.7-0.1
					C-215.1,29.7-214.9,29.7-214.6,29.7z"/>
			</g>
		</g>
	</g>
</g>
<g>
	<g id="kqEnyu_5_">
		<g>
			<path class="st1" d="M-177.3,30.4c-0.4,0.1-0.9,0.2-1.3,0.4s-0.8,0.3-1.2,0.5c-0.2,0.1-0.3,0.2-0.2,0.5c0.1,0.2,0.3,0.2,0.5,0.1
				c2.4-1.2,4.8-1.2,7.2,0c0.2,0.1,0.4,0.2,0.5-0.1s0-0.3-0.2-0.5c-0.7-0.4-1.4-0.7-2.2-0.8c-0.1,0-0.1,0-0.2,0c0,0,0,0,0,0
				c0.1-0.3,0.2-0.4,0.5-0.4c0.8,0.1,1.6,0.3,2.4,0.7c0.5,0.2,0.8,0.6,1,1c0.5,1.2,0.9,2.3,1.2,3.6c0.1,0.8,0.2,1.5,0.3,2.3
				c0,0.3-0.1,0.6-0.3,0.8c-0.4,0.5-1,0.9-1.6,1.1c-0.6,0.2-1.2,0.3-1.7,0.5c-0.2,0.1-0.4,0-0.5-0.2c-0.1-0.2-0.3-0.4-0.4-0.6
				c0.4-0.2,0.8-0.3,1.2-0.5c0.3-0.2,0.6-0.4,0.9-0.6c0.2-0.1,0.2-0.3,0.1-0.5c-0.1-0.2-0.3-0.1-0.4,0c-2.3,1.5-4.8,1.5-7.3,0.5
				c-0.3-0.1-0.5-0.3-0.8-0.5c-0.2-0.1-0.3-0.1-0.5,0c-0.1,0.2-0.1,0.3,0.1,0.4c0.6,0.3,1.2,0.6,1.8,0.9c0.1,0,0.2,0.1,0.4,0.1
				c-0.2,0.3-0.4,0.5-0.6,0.7c-0.1,0.1-0.2,0.1-0.3,0.1c-1.1-0.1-2.1-0.4-2.9-1.1c-0.1-0.1-0.2-0.2-0.3-0.2
				c-0.4-0.3-0.5-0.7-0.5-1.3c0.2-1.9,0.6-3.6,1.3-5.4c0.3-0.7,0.8-1.2,1.5-1.5c0.7-0.2,1.3-0.4,2-0.5
				C-177.5,30-177.4,30.1-177.3,30.4z M-178.9,35.6C-178.9,35.7-178.9,35.7-178.9,35.6c0.1,0.1,0.1,0.2,0.1,0.2
				c0.1,0.4,0.3,0.8,0.7,0.9c0.4,0.1,0.7,0,1-0.2c0.5-0.5,0.5-1.3,0-1.8c-0.4-0.4-1.1-0.4-1.4,0C-178.7,35.1-178.8,35.4-178.9,35.6z
				 M-172.9,35.7c0-0.8-0.6-1.3-1.3-1.2c-0.5,0.1-0.8,0.6-0.8,1.2c0,0.6,0.3,1,0.8,1.2C-173.5,37-172.9,36.4-172.9,35.7z"/>
		</g>
	</g>
</g>
<g id="dlQzeE_5_">
	<g>
		<path class="st1" d="M-257.4,29.3c1.4-0.4,2.8-0.4,4.3,0c0.4-0.5,0.9-1.1,1.7-1.2c0.3,0.6,0.3,1.2,0.2,1.8
			c-0.1,0.3-0.1,0.5,0.1,0.6c0,0,0.1,0.1,0.1,0.2c0.6,1.3,0.7,2.7,0.2,4c-0.4,1.2-1.4,1.7-2.6,2c-0.1,0-0.2,0.1-0.4,0.1
			c0,0-0.1,0-0.1,0c0.6,1.4,0.2,2.8,0.4,4.3c-1.2,0-2.3,0-3.5,0c0-0.5,0-1.1,0-1.6c-0.4,0-0.7,0-1,0c-0.9,0-1.5-0.5-2-1.2
			c-0.4-0.6-0.8-1.2-1.2-1.9c0.2,0,0.5,0,0.7,0.1c0.3,0.2,0.6,0.5,0.8,0.8c0.5,0.8,1.3,1.1,2.2,1c0.2,0,0.4-0.1,0.5-0.4
			c0-0.3,0.2-0.6,0.3-1c-0.4-0.1-0.8-0.2-1.3-0.4c-1.3-0.5-2.1-1.5-2.1-3c0-0.8-0.1-1.7,0.4-2.5c0.3-0.5,0.5-1,0.3-1.6
			c0-0.1,0-0.3,0-0.5c0.1-0.9,0.3-1,1.1-0.4C-258.1,28.7-257.8,29-257.4,29.3z"/>
	</g>
</g>
<circle class="st2" cx="41" cy="41" r="39.5"/>
<path class="st3" d="M23.8,27.6c4.4,4.3,8.8,7.2,14.3,7.7c0.4-1.4,0.6-2.8,1.1-4c1.9-4.7,7-6.5,11.3-4.1c1.6,0.9,3.5,1.2,5.5,1.9
	c0,0-0.3,0.8-0.7,1.8c0.8-0.1,1.5-0.2,2.5-0.3c-0.4,0.7-0.5,1.2-0.9,1.4c-2.4,1.5-2.8,3.7-3.2,6.3c-2.1,15-17.4,22.4-31.1,14.8
	c3-1,5.7-1.9,9-2.9c-5.8-3.3-6.6-4.5-4.5-6.1c-1.2-1.2-2.6-2.3-3.4-3.8c-0.6-1-3.2-2.5-0.1-3.8c0.2-0.1-0.4-1.7-0.4-2.6
	C23.5,32,23.7,30.2,23.8,27.6z"/>
</svg>
