<?xml version="1.0" encoding="utf-8"?>
<!-- Generator: Adobe Illustrator 21.0.0, SVG Export Plug-In . SVG Version: 6.00 Build 0)  -->
<svg version="1.1" id="Layer_1" xmlns="http://www.w3.org/2000/svg" xmlns:xlink="http://www.w3.org/1999/xlink" x="0px" y="0px"
	 viewBox="0 0 750 159" style="enable-background:new 0 0 750 159;" xml:space="preserve">
<style type="text/css">
	.st0{fill:#FFFFFF;}
	.st1{fill:url(#SVGID_1_);}
	.st2{fill:none;stroke:#0B1119;stroke-width:4;stroke-miterlimit:10;}
	.st3{fill:#0B1119;}
	.st4{fill:none;}
	.st5{fill:#E8A588;}
</style>
<path class="st0" d="M435,112.8l-11.9-63.2c-0.3-1.5-0.7-1.8-2-2.1l-0.9-0.2c-0.4-0.1-0.5-0.3-0.5-0.8v-0.2c0-0.4,0.2-0.6,0.6-0.6
	H435c0.4,0,0.6,0.2,0.6,0.6v0.2c0,0.5-0.1,0.7-0.4,0.8l-0.6,0.2c-0.6,0.2-0.9,0.5-0.9,1c0,0.2,0,0.3,0.1,0.9l6,38.8h0.2l4-21.5
	L441,49.7c-0.3-1.6-0.6-1.8-1.5-2.2l-0.5-0.2c-0.3-0.1-0.4-0.3-0.4-0.8v-0.2c0-0.4,0.2-0.6,0.6-0.6h14.6c0.4,0,0.6,0.2,0.6,0.6v0.2
	c0,0.5-0.1,0.7-0.5,0.8l-0.9,0.2c-1,0.2-1.3,0.6-1.3,1.1c0,0.2,0,0.3,0.1,0.9l6,38.7h0.2l7.2-38c0.1-0.5,0.1-0.7,0.1-0.8
	c0-0.9-0.4-1.6-1.5-1.9l-1-0.3c-0.3-0.1-0.4-0.3-0.4-0.8v-0.2c0-0.4,0.2-0.6,0.6-0.6h7.5c0.4,0,0.6,0.2,0.6,0.6v0.2
	c0,0.5-0.1,0.7-0.4,0.8l-1,0.3c-1.2,0.4-1.7,0.8-2.1,3l-11.8,62.3c-0.1,0.7-0.6,1.1-1,1.1h-0.7c-0.5,0-0.9-0.4-1-1.1l-7.5-39.5h-0.2
	l-7.5,39.5c-0.1,0.7-0.6,1.1-1,1.1H436C435.6,113.9,435.1,113.5,435,112.8z"/>
<path class="st0" d="M458.8,112.8v-0.2c0-0.5,0.1-0.7,0.4-0.8l1-0.3c1.2-0.4,1.8-1,2.2-3.1l13.2-62.2c0.1-0.7,0.6-1.1,1-1.1h0.7
	c0.5,0,0.9,0.4,1,1.1l13.4,63.2c0.3,1.5,0.7,1.8,2,2.1l0.9,0.2c0.4,0.1,0.5,0.3,0.5,0.8v0.2c0,0.4-0.2,0.6-0.6,0.6h-15.8
	c-0.4,0-0.6-0.2-0.6-0.6v-0.2c0-0.5,0.1-0.7,0.5-0.8l0.9-0.2c1-0.2,1.3-0.5,1.3-1.1c0-0.2,0-0.3-0.1-0.8l-2.5-13.6h-10.9l-2.7,12.8
	c-0.1,0.5-0.1,0.6-0.1,0.9c0,0.8,0.6,1.3,1.6,1.7l1,0.3c0.3,0.1,0.4,0.3,0.4,0.8v0.2c0,0.4-0.2,0.6-0.6,0.6h-7.6
	C459,113.4,458.8,113.2,458.8,112.8z M477.8,93.9l-4.7-24.7H473l-5.2,24.7C467.8,93.9,477.8,93.9,477.8,93.9z"/>
<path class="st0" d="M493.1,112.8v-0.2c0-0.5,0.1-0.7,0.5-0.8l0.9-0.2c1.3-0.3,1.6-0.6,1.6-1.7V49.2c0-1.1-0.2-1.3-1.6-1.7l-0.9-0.2
	c-0.4-0.1-0.5-0.3-0.5-0.8v-0.2c0-0.4,0.2-0.6,0.6-0.6h17c0.4,0,0.6,0.2,0.6,0.6v0.2c0,0.5-0.1,0.7-0.5,0.8l-1.7,0.4
	c-1.9,0.4-2.3,0.6-2.3,1.9v60c0,1.1,0.6,1.6,1.9,1.6h0.2c6.5,0,8.3-2.1,10.2-8.9l1.8-6.4c0.1-0.4,0.3-0.5,0.7-0.5h0.3
	c0.5,0,0.7,0.2,0.7,0.6v16.7c0,0.6-0.3,0.9-0.9,0.9h-28C493.3,113.4,493.1,113.2,493.1,112.8z"/>
<path class="st0" d="M521.5,112.8v-0.2c0-0.5,0.1-0.7,0.5-0.8l0.9-0.2c1.3-0.3,1.6-0.6,1.6-1.7V49.2c0-1.1-0.2-1.3-1.6-1.7l-0.9-0.2
	c-0.4-0.1-0.5-0.3-0.5-0.8v-0.2c0-0.4,0.2-0.6,0.6-0.6h17c0.4,0,0.6,0.2,0.6,0.6v0.2c0,0.5-0.1,0.7-0.5,0.8l-1.7,0.4
	c-1.9,0.4-2.3,0.6-2.3,1.9v60c0,1.1,0.6,1.6,1.9,1.6h0.2c6.5,0,8.3-2.1,10.2-8.9l1.8-6.4c0.1-0.4,0.3-0.5,0.7-0.5h0.3
	c0.5,0,0.7,0.2,0.7,0.6v16.7c0,0.6-0.3,0.9-0.9,0.9h-28C521.7,113.4,521.5,113.2,521.5,112.8z"/>
<path class="st0" d="M564.7,110.3c-0.6-0.7-0.8-0.9-1.1-0.9c-0.4,0-0.6,0.3-1,1.9l-0.6,2.3c-0.1,0.4-0.3,0.5-0.7,0.5H561
	c-0.5,0-0.7-0.2-0.7-0.6v-22c0-0.4,0.2-0.6,0.7-0.6h0.3c0.4,0,0.6,0.1,0.7,0.5l1.2,6.2c2.4,12.4,6,14.5,10.5,14.5
	c4.3,0,6.3-2.8,6.3-8.7c0-2.6-0.8-5-3.5-9.2l-10.6-16.9c-4.3-6.9-5.7-11.4-5.7-17.6c0-9.9,5.3-14.8,12-14.8c3.1,0,5.1,1.2,6.4,2.3
	c1.8,1.3,2.1,1.6,2.5,1.6c0.4,0,0.6-0.3,0.7-0.8l0.6-2.3c0.1-0.4,0.3-0.5,0.7-0.5h0.2c0.5,0,0.7,0.2,0.7,0.6v19.1
	c0,0.4-0.2,0.6-0.7,0.6h-0.3c-0.4,0-0.6-0.1-0.7-0.5l-1.2-5.7c-1.7-7.3-3.6-12-8.6-12c-3.6,0-5.5,2.5-5.5,6.9c0,2.8,0.9,5.3,3.5,9.4
	l10.6,16.9c4.2,6.7,5.7,11.3,5.7,17.6c0,11.7-5.3,16.4-13.1,16.4C569.8,114.5,567.3,113.3,564.7,110.3z"/>
<path class="st0" d="M592,112.8v-0.2c0-0.5,0.1-0.7,0.5-0.8l1.7-0.4c1.9-0.4,2.3-0.6,2.3-1.9V47.9h-0.7c-3.9,0-5.2,1.7-7,8.9
	l-1.6,6.4c-0.1,0.4-0.3,0.5-0.7,0.5h-0.3c-0.5,0-0.7-0.2-0.7-0.6V46.6c0-0.6,0.3-0.9,0.9-0.9h30.9c0.6,0,0.9,0.3,0.9,0.9v16.7
	c0,0.4-0.2,0.6-0.7,0.6h-0.3c-0.4,0-0.6-0.1-0.7-0.5l-1.6-6.4c-1.8-7.3-3-8.9-7-8.9h-0.7v61.6c0,1.2,0.4,1.5,2.3,1.9l1.7,0.4
	c0.4,0.1,0.5,0.3,0.5,0.8v0.2c0,0.4-0.2,0.6-0.6,0.6h-18.5C592.2,113.4,592,113.2,592,112.8z"/>
<path class="st0" d="M617.2,112.8v-0.2c0-0.5,0.1-0.7,0.5-0.8l0.9-0.2c1.3-0.3,1.6-0.6,1.6-1.7V49.2c0-1.1-0.2-1.3-1.6-1.7l-0.9-0.2
	c-0.4-0.1-0.5-0.3-0.5-0.8v-0.2c0-0.4,0.2-0.6,0.6-0.6h16.1c10.2,0,14.8,5.1,14.8,15.3v2.9c0,6.3-3,11.2-9.3,13.1v0.2
	c5.2,2.1,8,6.5,8.5,13.1l1.5,18.7c0.2,2,0.9,2.5,2.2,2.8l0.9,0.2c0.4,0.1,0.5,0.3,0.5,0.8v0.2c0,0.4-0.2,0.6-0.6,0.6h-11.9
	c-0.6,0-0.9-0.4-1-0.8c-0.4-1.5-0.7-2.9-0.9-6.2l-1.1-16.7c-0.6-8.6-1.2-11.6-6.2-11.6H631v31.8c0,1.1,0.2,1.3,1.6,1.7l0.9,0.2
	c0.4,0.1,0.5,0.3,0.5,0.8v0.2c0,0.4-0.2,0.6-0.6,0.6h-15.6C617.4,113.4,617.2,113.2,617.2,112.8z M632.6,75.6c3.8,0,5.5-1.2,5.5-5
	V52.8c0-3.5-1.6-4.8-5.5-4.8H631v27.6H632.6z"/>
<path class="st0" d="M651.2,112.8v-0.2c0-0.5,0.1-0.7,0.5-0.8l0.9-0.2c1.3-0.3,1.6-0.6,1.6-1.7V49.2c0-1.1-0.2-1.3-1.6-1.7l-0.9-0.2
	c-0.4-0.1-0.5-0.3-0.5-0.8v-0.2c0-0.4,0.2-0.6,0.6-0.6h28c0.6,0,0.9,0.3,0.9,0.9v14.7c0,0.4-0.2,0.6-0.7,0.6h-0.3
	c-0.4,0-0.6-0.1-0.7-0.5l-1.8-6.4c-1.3-5.2-3.1-7-9-7H665v26.4h1.2c4.5,0,6.2-0.7,7-3.7l0.9-3.5c0.1-0.4,0.3-0.5,0.7-0.5h0.3
	c0.5,0,0.7,0.2,0.7,0.6v16.4c0,0.4-0.2,0.6-0.7,0.6h-0.3c-0.4,0-0.6-0.1-0.7-0.5l-0.9-3.5c-0.8-3-2.5-3.7-7-3.7H665v32.9
	c0,1.1,0.6,1.6,1.9,1.6h1.2c6.5,0,8.5-2,10.2-8l1.8-6.4c0.1-0.4,0.3-0.5,0.7-0.5h0.3c0.5,0,0.7,0.2,0.7,0.6v15.8
	c0,0.6-0.3,0.9-0.9,0.9h-29C651.3,113.4,651.2,113.2,651.2,112.8z"/>
<path class="st0" d="M681.2,112.8v-0.2c0-0.5,0.1-0.7,0.5-0.8l0.9-0.2c1.3-0.3,1.6-0.6,1.6-1.7V49.2c0-1.1-0.2-1.3-1.6-1.7l-0.9-0.2
	c-0.4-0.1-0.5-0.3-0.5-0.8v-0.2c0-0.4,0.2-0.6,0.6-0.6h28c0.6,0,0.9,0.3,0.9,0.9v14.7c0,0.4-0.2,0.6-0.7,0.6h-0.3
	c-0.4,0-0.6-0.1-0.7-0.5l-1.8-6.4c-1.3-5.2-3.1-7-9-7H695v26.4h1.2c4.5,0,6.2-0.7,7-3.7l0.9-3.5c0.1-0.4,0.3-0.5,0.7-0.5h0.3
	c0.5,0,0.7,0.2,0.7,0.6v16.4c0,0.4-0.2,0.6-0.7,0.6h-0.3c-0.4,0-0.6-0.1-0.7-0.5l-0.9-3.5c-0.8-3-2.5-3.7-7-3.7H695v32.9
	c0,1.1,0.6,1.6,1.9,1.6h1.2c6.5,0,8.5-2,10.2-8l1.8-6.4c0.1-0.4,0.3-0.5,0.7-0.5h0.3c0.5,0,0.7,0.2,0.7,0.6v15.8
	c0,0.6-0.3,0.9-0.9,0.9h-29C681.4,113.4,681.2,113.2,681.2,112.8z"/>
<path class="st0" d="M718,112.8v-0.2c0-0.5,0.1-0.7,0.5-0.8l1.7-0.4c1.9-0.4,2.3-0.6,2.3-1.9V47.9h-0.7c-3.9,0-5.2,1.7-7,8.9
	l-1.6,6.4c-0.1,0.4-0.3,0.5-0.7,0.5h-0.3c-0.5,0-0.7-0.2-0.7-0.6V46.6c0-0.6,0.3-0.9,0.9-0.9h30.9c0.6,0,0.9,0.3,0.9,0.9v16.7
	c0,0.4-0.2,0.6-0.7,0.6h-0.4c-0.4,0-0.6-0.1-0.7-0.5l-1.6-6.4c-1.8-7.3-3-8.9-7-8.9h-0.7v61.6c0,1.2,0.4,1.5,2.3,1.9l1.7,0.4
	c0.4,0.1,0.5,0.3,0.5,0.8v0.2c0,0.4-0.2,0.6-0.6,0.6h-18.6C718.1,113.4,718,113.2,718,112.8z"/>
<g>
	<path class="st0" d="M18.1,112.5L6.1,49.4c-0.3-1.5-0.7-1.8-2-2.1l-0.9-0.2c-0.4-0.1-0.5-0.3-0.5-0.8v-0.2c0-0.4,0.2-0.6,0.6-0.6
		h14.7c0.4,0,0.6,0.2,0.6,0.6v0.2c0,0.5-0.1,0.7-0.4,0.8l-0.6,0.2c-0.6,0.2-0.9,0.5-0.9,1c0,0.2,0,0.3,0.1,0.9L22.7,88h0.2l4-21.5
		l-3.2-17c-0.3-1.6-0.6-1.8-1.5-2.2l-0.5-0.2c-0.3-0.1-0.4-0.3-0.4-0.8v-0.2c0-0.4,0.2-0.6,0.6-0.6h14.6c0.4,0,0.6,0.2,0.6,0.6v0.2
		c0,0.5-0.1,0.7-0.5,0.8l-0.9,0.2c-1,0.2-1.3,0.6-1.3,1.1c0,0.2,0,0.3,0.1,0.9L40.5,88h0.2l7.2-37.8c0.1-0.5,0.1-0.7,0.1-0.8
		c0-0.9-0.4-1.6-1.5-1.9l-1-0.3c-0.3-0.1-0.4-0.3-0.4-0.8v-0.2c0-0.4,0.2-0.6,0.6-0.6h7.5c0.4,0,0.6,0.2,0.6,0.6v0.2
		c0,0.5-0.1,0.7-0.4,0.8l-1,0.3c-1.1,0.4-1.7,0.8-2.1,3l-11.8,62.1c-0.1,0.7-0.6,1.1-1,1.1h-0.7c-0.5,0-0.9-0.4-1-1.1l-7.5-39.4
		h-0.2l-7.5,39.4c-0.1,0.7-0.6,1.1-1,1.1h-0.7C18.5,113.5,18.2,113.1,18.1,112.5z"/>
	<path class="st0" d="M50.3,96.8V61.7C50.3,51,56,44.5,65,44.5s14.6,6.4,14.6,17.1v35.2c0,10.7-5.6,17.1-14.6,17.1
		C56,114.1,50.3,107.6,50.3,96.8z M68.8,106.5V52.1c0-3.8-1.1-5.3-3.8-5.3c-2.8,0-3.8,1.3-3.8,5.3v54.4c0,3.8,1.1,5.3,3.8,5.3
		C67.8,111.8,68.8,110.4,68.8,106.5z"/>
	<path class="st0" d="M81.4,112.5v-0.2c0-0.5,0.1-0.7,0.5-0.8l0.9-0.2c1.3-0.3,1.6-0.6,1.6-1.7V49.1c0-1.1-0.2-1.3-1.6-1.7l-0.9-0.3
		c-0.4-0.1-0.5-0.3-0.5-0.8v-0.2c0-0.4,0.2-0.6,0.6-0.6h17c0.4,0,0.6,0.2,0.6,0.6v0.2c0,0.5-0.1,0.7-0.5,0.8l-1.7,0.4
		c-1.9,0.4-2.3,0.6-2.3,1.9v59.8c0,1.1,0.6,1.6,1.9,1.6h0.2c6.5,0,8.2-2.1,10.2-8.9l1.8-6.4c0.1-0.4,0.3-0.5,0.7-0.5h0.3
		c0.5,0,0.7,0.2,0.7,0.6v16.7c0,0.6-0.3,0.9-0.9,0.9H82C81.6,113,81.4,112.8,81.4,112.5z"/>
	<path class="st0" d="M120,112.5l-12.5-63c-0.3-1.5-0.7-1.8-2-2.1l-0.9-0.2c-0.4-0.1-0.5-0.3-0.5-0.8v-0.2c0-0.4,0.2-0.6,0.6-0.6
		h15.7c0.4,0,0.6,0.2,0.6,0.6v0.2c0,0.5-0.1,0.7-0.5,0.8l-0.9,0.2c-1,0.2-1.3,0.5-1.3,1c0,0.2,0,0.3,0.1,0.9l6.5,38.6h0.2l7.4-37.7
		c0.1-0.5,0.1-0.7,0.1-0.9c0-0.9-0.6-1.5-1.6-1.8l-1-0.3c-0.3-0.1-0.4-0.3-0.4-0.8v-0.2c0-0.4,0.2-0.6,0.6-0.6h7.6
		c0.4,0,0.6,0.2,0.6,0.6v0.2c0,0.5-0.1,0.7-0.4,0.8l-1,0.3c-1.2,0.4-1.8,1-2.2,3.1l-12.1,62c-0.1,0.7-0.6,1.1-1,1.1h-0.7
		C120.5,113.5,120.1,113.1,120,112.5z"/>
	<path class="st0" d="M137.4,112.5v-0.2c0-0.5,0.1-0.7,0.5-0.8l0.9-0.2c1.3-0.3,1.6-0.6,1.6-1.7V49.1c0-1.1-0.2-1.3-1.6-1.7
		l-0.9-0.2c-0.4-0.1-0.5-0.3-0.5-0.8v-0.2c0-0.4,0.2-0.6,0.6-0.6H166c0.6,0,0.9,0.3,0.9,0.9v14.6c0,0.4-0.2,0.6-0.7,0.6h-0.3
		c-0.4,0-0.6-0.1-0.7-0.5l-1.8-6.4c-1.3-5.2-3.1-7-9-7h-3.2v26.3h1.2c4.5,0,6.1-0.7,7-3.6l0.9-3.4c0.1-0.4,0.3-0.5,0.7-0.5h0.3
		c0.5,0,0.7,0.2,0.7,0.6v16.4c0,0.4-0.2,0.6-0.7,0.6H161c-0.4,0-0.6-0.1-0.7-0.5l-0.9-3.4c-0.8-3-2.5-3.6-7-3.6h-1.2v32.8
		c0,1.1,0.6,1.6,1.9,1.6h1.1c6.5,0,8.4-2,10.2-8l1.8-6.4c0.1-0.4,0.3-0.5,0.7-0.5h0.3c0.5,0,0.7,0.2,0.7,0.6v15.7
		c0,0.6-0.3,0.9-0.9,0.9h-28.9C137.6,113,137.4,112.8,137.4,112.5z"/>
	<path class="st0" d="M173.4,110c-0.6-0.7-0.8-0.9-1.1-0.9c-0.4,0-0.6,0.3-1,1.9l-0.6,2.3c-0.1,0.4-0.3,0.5-0.7,0.5h-0.2
		c-0.5,0-0.7-0.2-0.7-0.6v-22c0-0.4,0.2-0.6,0.7-0.6h0.3c0.4,0,0.6,0.1,0.7,0.5l1.1,6.1c2.4,12.4,5.9,14.5,10.4,14.5
		c4.3,0,6.3-2.8,6.3-8.6c0-2.6-0.8-5-3.4-9.2l-10.5-16.9c-4.3-6.9-5.7-11.4-5.7-17.5c0-9.9,5.3-14.7,12-14.7c3.1,0,5.1,1.1,6.4,2.3
		c1.8,1.3,2.1,1.6,2.5,1.6c0.4,0,0.6-0.3,0.7-0.8l0.6-2.3c0.1-0.4,0.3-0.5,0.7-0.5h0.2c0.5,0,0.7,0.2,0.7,0.6v19.1
		c0,0.4-0.2,0.6-0.7,0.6h-0.2c-0.4,0-0.6-0.1-0.7-0.5l-1.2-5.7c-1.7-7.3-3.5-12-8.6-12c-3.5,0-5.5,2.5-5.5,6.9
		c0,2.8,0.9,5.3,3.4,9.4l10.6,16.9c4.2,6.7,5.7,11.3,5.7,17.5c0,11.7-5.3,16.4-13,16.4C178.4,114.1,175.9,112.9,173.4,110z"/>
</g>
<g>
	<g>
		<path class="st0" d="M216.3,65.4L216.3,65.4c0-0.2,0-0.3,0.1-0.3l0.3-0.1c0.4-0.1,0.5-0.2,0.5-0.5l-0.2-18.3
			c0-0.3-0.1-0.4-0.5-0.5l-0.3-0.1c-0.1,0-0.1-0.1-0.1-0.2v-0.1c0-0.1,0.1-0.2,0.2-0.2l8.4-0.1c0.2,0,0.3,0.1,0.3,0.3l0.1,4.5
			c0,0.1-0.1,0.2-0.2,0.2h-0.1c-0.1,0-0.2,0-0.2-0.1l-0.5-2c-0.4-1.6-0.9-2.1-2.7-2.1h-0.9l0.1,8.6h0.4c1.3,0,1.9-0.2,2.1-1.1l0.2-1
			c0-0.1,0.1-0.1,0.2-0.1h0.1c0.1,0,0.2,0.1,0.2,0.2l0.1,5c0,0.1-0.1,0.2-0.2,0.2h-0.1c-0.1,0-0.2,0-0.2-0.1l-0.3-1
			c-0.2-0.9-0.7-1.1-2.1-1h-0.4l0.1,9.2c0,0.4,0.1,0.4,0.7,0.5l0.5,0.1c0.1,0,0.1,0.1,0.1,0.2v0.1c0,0.1-0.1,0.2-0.2,0.2l-5.1,0.1
			C216.3,65.6,216.3,65.5,216.3,65.4z"/>
	</g>
	<g>
		<path class="st0" d="M206.6,60.6L206.5,50c0-3.2,1.7-5.2,4.4-5.2c2.7,0,4.5,1.9,4.5,5.1l0.1,10.6c0,3.2-1.7,5.2-4.4,5.2
			C208.3,65.7,206.6,63.8,206.6,60.6z M212.2,63.4L212,47c0-1.1-0.3-1.6-1.1-1.6s-1.1,0.4-1.1,1.6l0.2,16.4c0,1.1,0.3,1.6,1.1,1.6
			S212.2,64.5,212.2,63.4z"/>
	</g>
</g>
<linearGradient id="SVGID_1_" gradientUnits="userSpaceOnUse" x1="3823.8782" y1="-1486.5566" x2="3823.8782" y2="-1335.4185" gradientTransform="matrix(1 0 0 -1 -3503.7466 -1331.9185)">
	<stop  offset="0" style="stop-color:#CC8A6D"/>
	<stop  offset="9.602536e-02" style="stop-color:#D49C83"/>
	<stop  offset="0.2963" style="stop-color:#E8C9BC"/>
	<stop  offset="0.5107" style="stop-color:#FFFFFF"/>
	<stop  offset="0.6234" style="stop-color:#DEDEDD"/>
	<stop  offset="0.793" style="stop-color:#B3B1B0"/>
	<stop  offset="0.9242" style="stop-color:#989593"/>
	<stop  offset="1" style="stop-color:#8E8B89"/>
</linearGradient>
<circle class="st1" cx="320.1" cy="79.1" r="75.6"/>
<ellipse transform="matrix(0.9875 -0.1578 0.1578 0.9875 -8.499 51.4925)" class="st2" cx="320" cy="79.3" rx="75.6" ry="75.6"/>
<g>
	<path class="st3" d="M376.6,97.8c0.1-0.5,0.3-1,0.5-1.6c-0.2,0.3-0.4,0.6-0.5,1C376.6,97.3,376.6,97.5,376.6,97.8z"/>
	<path class="st3" d="M377.2,96.2c0.4-0.8,0.8-1.7,1.2-2.5c-0.5,0.8-0.9,1.8-1.2,2.7C377.1,96.2,377.1,96.2,377.2,96.2z"/>
	<path class="st3" d="M316,52.6c0.9-0.7,2.6,2.2,3.7,0.4c0.3-0.5,1.2,0.4,1.9,0.2c0.6-0.1,1.2-0.3,1.9-0.3c-0.2-1.1-0.6-2.3-1.6-3
		c-3.5-3.1-10.3,1.6-8.4,5.7C314.5,53.9,314.3,53.9,316,52.6z"/>
</g>
<g>
	<path class="st3" d="M267.5,85.4c0,0,20.1,14.6,27.7,17.6c7.6,3,14.1,3,14.1,3s-2.3,1.6-2.5,3.5c-0.5,3.5,1.6,6.5,1.6,6.5
		s-18.2,1-27.7-2.5c-7.3-2.7-14.6-7.6-15.2-16.2C265.2,91.7,267.5,85.4,267.5,85.4z"/>
	<path class="st3" d="M308.9,106.1c0,0-1.6,1.6-1.6,3c0,1-0.5,2.5,1.6,5.5c1.3,2.1,5.1,1.6,5.1,1.6s-5.1,11.6,2.5,15.7
		c7.6,4,17.1,1.6,19.7,0c2.5-1.6,2-7.1,2-7.1l-7.6-1c0,0-4.6,4.6-8.6,2.5c-4.2-2.1-5.8-7.7-5.1-10.1c1.6-4.6-2-8.1-3-9
		C313,106.1,308.9,106.1,308.9,106.1z"/>
</g>
<g>
	<path class="st4" d="M351.8,114.9v-0.1C351.8,114.7,351.8,114.8,351.8,114.9z"/>
	<path class="st4" d="M378.3,93.6c0,0,0,0.1-0.1,0.1C378.3,93.6,378.4,93.5,378.3,93.6z"/>
	<path class="st4" d="M377.2,96.1c0.1-0.3,0.4-0.9,0.6-1.5C377.6,95.2,377.4,95.6,377.2,96.1z"/>
	<path class="st4" d="M376.8,97.3c-0.1,0.2-0.1,0.4-0.1,0.4C376.7,97.6,376.7,97.5,376.8,97.3z"/>
	<path class="st4" d="M336.6,97.4c-1.8,0.6-1.1,2-2.9,1.2c-0.2-0.1-0.3,0.1-0.2,0.3c2.2,2,4.4,5.4,3.8,3.3c-0.4-2,4.8-1.9,2.9-4.9
		C339.5,96.3,338.4,96.8,336.6,97.4z"/>
	<path class="st3" d="M352.1,116.9c-0.2-0.8-0.3-1.7-0.3-2C351.7,115.6,351.8,116.2,352.1,116.9z"/>
	<path class="st3" d="M377.1,96.3c0-0.1,0.1-0.1,0.1-0.2C377.1,96.3,377.1,96.3,377.1,96.3z"/>
	<path class="st3" d="M352.4,119.1C352.3,118.7,352.2,118.7,352.4,119.1L352.4,119.1z"/>
	<path class="st3" d="M377.8,94.6c0-0.1,0.1-0.2,0.1-0.3c0.1-0.3,0.2-0.5,0.3-0.6C378.2,93.9,378.1,94.2,377.8,94.6z"/>
	<path class="st3" d="M258.5,64.7c2.6-2.4,4.9-5,8.7-5.8c-0.3,0.6-0.5,0.9-0.6,1.2c-1.9,4.7-4.3,9.2-5.6,14.1
		c-4.3,15.4-1.7,29.8,7.4,42.9c6.3,9.2,14.6,16.3,24.9,20.8c3.1,1.3,6.2,2.6,9.4,3.9c0.2-0.5,0.1-0.3,0.4-0.8
		c-8.1-5-14.8-11.2-17.6-20.9c-0.4,0-0.4,0-0.9,0c-0.7,2.1-1.6,4.2-2.3,6.3c0,0.1-0.2,0.1-0.3,0c-11.3-12.5-21.9-35.7-5.8-50.1
		c0.1-0.1,0-0.3-0.1-0.3c-2.9,0.3-5,2-7.3,3.6c-0.1,0.1-0.3,0-0.3-0.2c1.1-9.1,5-16.1,12.1-21.3c0.6-0.4-3.5,2.1-3.2,1.3
		c1.3-2.7,2.2-6.7,3.8-9.1c3.2-4.8,3.2-12.2,5.1-18.1c0-0.1,0.3-0.2,0.3,0c0.9,2.2,5.2,12.9,9.1,15.1c0.1,0,0.2,0,0.2-0.1
		c0.9-2.5,1.9-13.3,2.8-16c0-0.1,0.2-0.2,0.3-0.1c3.2,3.7,8.7,11,8.6,15.5c0,0.1,0.1,0.2,0.2,0.1c3.6-2.3,6.6-2.6,11.3-2.3
		c4.4,0.3,7.6,2.4,8.1,2.7h0.1c1.3-0.4,19.6-6.9,25.7-6.7c0.1,0,0.1,0.1,0.2,0.1c1.9,8.9,0.2,10.7-2.1,13.9
		c-2.4,3.3-4.8,2.9-9.9,5.8c-1.1,0.6-2.3,3.1-2.5,3.6c0,0.1-0.1,0.1-0.2,0.1l-4.4-0.8c-0.1,0-0.2,0-0.2,0.1l-1.2,3.3
		c0,0.1-0.1,0.1-0.2,0.1c-0.7-0.3-3.4-1.7-4.2-1.8c-0.5-0.1-1.3,2.6-1.6,3.2c0,0.1-0.1,0.1-0.2,0.1c-0.6-0.1-3.1-0.4-3.9-0.2
		c-10,2.7-6.7,4.4-6.9,5.1c0,0.6,1.1,5.6,6.6,2.3c1.9-1.1,5.7-2.1,8.3-2.7c7.4-1.7,11.4,1.5,10.9,1.9c-3.9,2.8-2.5,0.8-4.7,5.1
		c0,0.1-0.2,0.1-0.2,0.1c-7.7-4.5-9.7,2.5-15.6,4.4c-5,1.6-8.3,3.3-10.3,9.2c-0.4,1.1-1.6,1.7-1.8,2.9c-0.3,1.9-0.7,6.3,2.2,6.7
		c3.8,0.5,10-0.1,14.9,0c2.4,0.1,1.2,1.7,2.7,3.5l0,0c2.8,5.8,6.6,5.8,11.9,5.3c0.1,0,0.2,0.1,0.2,0.2c-0.4,5.4,6.5,6.2,10.5,9.3
		c0.1,0.1,0.2,0,0.3-0.1c0.5-1,0.5-1.9,0.4-2.3c-0.2-0.4-0.1-0.4,0,0c0,0.1,0.1,0.2,0.2,0.3c0.1,0.1-0.2-1.3-0.4-2.6
		c-0.3-0.5-0.5-1.1-0.3-2c0-0.1,0-0.1,0-0.1v0.1c0,0.3,0.1,1.1,0.3,2c2,3.1,11.3,2.8,13.8,4.8c0.1,0.1,0.2,0,0.2,0
		c2.5-3.3-0.1-3.4,2.4-6.9c1.3-1.8,0.5-1,1.8-2.8c0.4-0.5,0.9-1.7,1.5-2c2.6-1.9,1.8,0.7,5.8-4.6c3.8-5.1,3.5-11.2,4.4-15.7
		c0-0.2-0.1-0.3-0.3-0.2c-1.1,1-2.4,2.5-3.2,4l0,0c-0.3,0.6-0.6,1.2-0.9,1.9c-0.3,0.7-0.6,1.5-0.7,1.9c0,0.1-0.1,0.3-0.1,0.4
		c0,0,0-0.2,0.1-0.4c0.1-0.3,0.2-0.7,0.3-1.1c0,0.1,0,0,0.1-0.2c0.2-0.5,0.4-0.9,0.6-1.5c0.2-0.4,0.3-0.7,0.4-0.9
		c0-0.1,0.1-0.1,0.1-0.1c0-0.1,0,0-0.1,0.1c-0.1,0.1-0.1,0.3-0.3,0.6c0.1-0.2,0.3-0.5,0.4-0.7l0,0c5.8-13,6.4-26.5,1-39.9
		c-6.6-16.4-18.7-27.8-35.4-34.3c-2.5-0.9-5-1.7-7.5-2.5c-0.2,0-0.3,0.1-0.2,0.3c2,2.6,4.3,4.8,5.2,8.3c0,0.1-0.1,0.3-0.2,0.2
		c-0.7-0.4-1.2-0.6-1.8-0.9c-19.2-9.5-38-10.2-56.3,2.5c-13.2,9.1-20.8,21.8-25.1,37.1C258.1,64.6,258.3,64.8,258.5,64.7z
		 M337.4,102.3c0.5,2.1-1.7-1.3-3.8-3.3c-0.1-0.1,0-0.3,0.2-0.3c1.8,0.7,1.1-0.6,2.9-1.2c1.8-0.6,2.9-1.1,3.6-0.1
		C342.1,100.5,336.8,100.2,337.4,102.3z M358,53.8c0,0,0.4,0.3,1,0c1-0.5,1-2,1-2l3,5.1l3.5-4.6l-2.5-6.5l-3.5,2c0,0,0.1-1-0.5-2
		c-1-1.6-1.6-1-1.6-1v-1v-1c0,0,3.5-1,10.1,5.5s14.5,24.5,14.5,24.5v8.6c0,0-5.2-10.4-14.9-17.9c-6.5-5.1-10.6-5.5-10.6-5.5
		L358,53.8z"/>
	<path class="st3" d="M377.1,96.3c-0.1,0.4-0.2,0.7-0.3,1.1c0.1-0.4,0.4-1.1,0.7-1.9c-0.1,0.2-0.2,0.4-0.3,0.6
		C377.1,96.2,377.1,96.2,377.1,96.3z"/>
	<path class="st3" d="M377.2,96.1c0,0.1-0.1,0.1-0.1,0.2C377.1,96.2,377.1,96.2,377.2,96.1c0.1-0.1,0.2-0.3,0.3-0.5
		c0.2-0.4,0.3-0.8,0.5-1.1c0,0.1-0.1,0.2-0.1,0.3C377.6,95.2,377.3,95.8,377.2,96.1z"/>
</g>
<g>
	<path class="st5" d="M428.1,155.1c-0.4-0.4-0.5-0.5-0.7-0.5c-0.3,0-0.4,0.2-0.5,0.9l-0.2,1c-0.1,0.2-0.2,0.3-0.4,0.3H426
		c-0.1,0-0.2-0.1-0.2-0.2v-12c0-0.2,0.1-0.2,0.2-0.2h0.2c0.2,0,0.3,0.1,0.4,0.3l0.6,3.7c0.9,5.9,2.8,7.6,5.5,7.6
		c2.7,0,3.8-1.7,3.8-5.3c0-1.7-0.4-3.4-2-5.8l-5.7-8.7c-2.2-3.3-2.9-6-2.9-8.9c0-4.9,2.5-7.5,5.9-7.5c1.5,0,2.7,0.5,3.5,1.3
		c0.6,0.6,0.8,0.7,1,0.7c0.3,0,0.4-0.2,0.5-0.6l0.2-0.9c0.1-0.2,0.1-0.3,0.3-0.3h0.2c0.2,0,0.3,0.1,0.3,0.2v10.4
		c0,0.2-0.1,0.3-0.3,0.3h-0.2c-0.2,0-0.3-0.1-0.3-0.3l-0.6-3c-0.8-4.7-2.2-6.6-4.8-6.6c-2.1,0-3.2,1.3-3.2,4.3c0,1.9,0.5,3.5,2,5.9
		l5.7,8.7c2.2,3.3,2.9,5.9,2.9,8.9c0,5.7-2.5,8.4-6.4,8.4C430.7,156.9,429.4,156.3,428.1,155.1z"/>
	<path class="st5" d="M441.5,156.1V156c0-0.2,0.1-0.3,0.3-0.4l0.5-0.1c0.7-0.2,0.8-0.3,0.8-0.9v-32.9c0-0.6-0.1-0.7-0.8-0.9
		l-0.5-0.1c-0.2-0.1-0.3-0.2-0.3-0.4v0.1c0-0.1,0.1-0.2,0.2-0.2h13.7c0.3,0,0.4,0.2,0.4,0.4v7.8c0,0.2-0.1,0.2-0.2,0.2h-0.2
		c-0.2,0-0.3-0.1-0.4-0.3l-0.7-3.4c-0.6-2.8-1.3-3.6-4.2-3.6h-3v15.6h1.8c2.1,0,2.7-0.4,3.1-2.1l0.4-2c0.1-0.2,0.2-0.3,0.4-0.3h0.2
		c0.1,0,0.2,0.1,0.2,0.3v8.9c0,0.2-0.1,0.2-0.2,0.2h-0.2c-0.2,0-0.3-0.1-0.4-0.3l-0.4-2c-0.4-1.6-1-2-3.1-2h-1.8v16.7
		c0,0.6,0.2,0.7,1.3,1l0.8,0.2c0.2,0.1,0.3,0.2,0.3,0.4v0.1c0,0.2-0.1,0.3-0.3,0.3h-7.6C441.6,156.4,441.5,156.3,441.5,156.1z"/>
	<path class="st5" d="M461.4,156.1V156c0-0.2,0.1-0.3,0.3-0.4l0.8-0.2c1.1-0.3,1.3-0.4,1.3-1V121h-0.8c-2.4,0-2.7,0.9-3.5,4.7
		l-0.7,3.4c-0.1,0.2-0.2,0.3-0.3,0.3h-0.2c-0.2,0-0.3-0.1-0.3-0.2v-8.8c0-0.3,0.2-0.4,0.4-0.4h14.9c0.3,0,0.4,0.2,0.4,0.4v8.8
		c0,0.2-0.1,0.2-0.2,0.2h-0.2c-0.2,0-0.3-0.1-0.4-0.3l-0.7-3.4c-0.8-3.8-1.1-4.7-3.5-4.7h-0.9v33.3c0,0.6,0.2,0.7,1.3,1l0.8,0.2
		c0.2,0.1,0.3,0.2,0.3,0.4v0.1c0,0.2-0.1,0.3-0.2,0.3h-8.4C461.5,156.4,461.4,156.3,461.4,156.1z"/>
	<path class="st5" d="M487.3,156.1V156c0-0.2,0.1-0.3,0.3-0.4l0.8-0.2c1.1-0.3,1.3-0.4,1.3-1v-15.8l-4.8-16.7
		c-0.2-0.8-0.4-0.9-1.1-1.1l-0.5-0.1c-0.2-0.1-0.3-0.2-0.3-0.4v0.1c0-0.1,0.1-0.2,0.2-0.2h7c0.2,0,0.3,0.1,0.3,0.2v0.1
		c0,0.2-0.1,0.3-0.3,0.4l-0.5,0.1c-0.5,0.1-0.7,0.3-0.7,0.5c0,0.1,0,0.2,0.1,0.4l4,14.2h0.1l3.9-13.7c0.1-0.3,0.1-0.4,0.1-0.6
		c0-0.5-0.3-0.7-0.8-0.8l-0.5-0.2c-0.2-0.1-0.2-0.2-0.2-0.4l0,0c0-0.1,0.1-0.2,0.3-0.2h4.2c0.2,0,0.3,0.1,0.3,0.2v0.1
		c0,0.2-0.1,0.3-0.2,0.4l-0.5,0.2c-0.7,0.2-1,0.5-1.3,1.7l-4.5,15.7v16.2c0,0.6,0.2,0.7,1.3,1l0.8,0.2c0.2,0.1,0.3,0.2,0.3,0.4v0.1
		c0,0.2-0.1,0.3-0.3,0.3h-8.4C487.3,156.4,487.3,156.3,487.3,156.1z"/>
	<path class="st5" d="M501.8,156.1V156c0-0.2,0.1-0.3,0.3-0.4l0.5-0.1c0.7-0.2,0.8-0.3,0.8-0.9v-32.9c0-0.6-0.1-0.7-0.8-0.9
		l-0.5-0.1c-0.2-0.1-0.3-0.2-0.3-0.4v0.1c0-0.1,0.1-0.2,0.2-0.2h6.7c0.2,0,0.3,0.1,0.3,0.2v0.1c0,0.2-0.1,0.3-0.3,0.4l-0.5,0.1
		c-0.7,0.2-0.8,0.3-0.8,0.9v32.9c0,0.6,0.1,0.7,0.8,0.9l0.5,0.1c0.2,0.1,0.3,0.2,0.3,0.4v0.1c0,0.2-0.1,0.3-0.3,0.3H502
		C501.9,156.4,501.8,156.3,501.8,156.1z"/>
	<path class="st5" d="M511.2,156.1V156c0-0.2,0.1-0.3,0.3-0.4l0.5-0.1c0.7-0.2,0.8-0.3,0.8-0.9v-32.9c0-0.6-0.1-0.7-0.8-0.9
		l-0.5-0.1c-0.2-0.1-0.3-0.2-0.3-0.4v0.1c0-0.1,0.1-0.2,0.2-0.2h13.7c0.3,0,0.4,0.2,0.4,0.4v7.8c0,0.2-0.1,0.2-0.2,0.2h-0.2
		c-0.2,0-0.3-0.1-0.4-0.3l-0.7-3.4c-0.6-2.8-1.3-3.6-4.2-3.6h-3v14.3h1.8c2.1,0,2.7-0.4,3.1-2l0.4-2c0.1-0.2,0.2-0.3,0.4-0.3h0.2
		c0.1,0,0.2,0.1,0.2,0.2v8.9c0,0.2-0.1,0.3-0.2,0.3h-0.2c-0.2,0-0.3-0.1-0.4-0.3l-0.4-2c-0.4-1.6-1-2.1-3.1-2.1h-1.8v18.3
		c0,0.6,0.3,0.8,1,0.8h2c3.1,0,4-0.9,4.8-4.2l0.7-3.5c0.1-0.2,0.2-0.3,0.4-0.3h0.2c0.1,0,0.2,0.1,0.2,0.3v8.3c0,0.3-0.2,0.5-0.4,0.5
		h-14.2C511.3,156.4,511.2,156.3,511.2,156.1z"/>
	<path class="st5" d="M528.7,156.1V156c0-0.2,0.1-0.3,0.3-0.4l0.5-0.1c0.7-0.2,0.8-0.3,0.8-0.9v-32.9c0-0.6-0.1-0.7-0.8-0.9
		l-0.5-0.1c-0.2-0.1-0.3-0.2-0.3-0.4v0.1c0-0.1,0.1-0.2,0.2-0.2h7.6c0.2,0,0.3,0.1,0.3,0.2v0.1c0,0.2-0.1,0.3-0.3,0.4l-0.8,0.2
		c-1.1,0.3-1.3,0.4-1.3,0.9v32.6c0,0.6,0.3,0.8,1,0.8h1.3c3.1,0,3.9-1,4.8-4.7l0.7-3.5c0.1-0.2,0.2-0.3,0.4-0.3h0.2
		c0.1,0,0.2,0.1,0.2,0.3v8.8c0,0.3-0.2,0.5-0.4,0.5h-13.7C528.7,156.4,528.7,156.3,528.7,156.1z"/>
	<path class="st5" d="M545.1,156.1V156c0-0.2,0.1-0.3,0.3-0.4l0.5-0.1c0.7-0.2,0.8-0.3,0.8-0.9v-32.9c0-0.6-0.1-0.7-0.8-0.9
		l-0.5-0.1c-0.2-0.1-0.3-0.2-0.3-0.4v0.1c0-0.1,0.1-0.2,0.2-0.2h8.1c4.9,0,7.2,2.6,7.2,8.2v19.8c0,5.6-2.3,8.3-7.2,8.3h-8.1
		C545.1,156.4,545.1,156.3,545.1,156.1z M552.8,155.4c2.7,0,3.7-1,3.7-3.8v-26.5c0-2.8-1-3.8-3.7-3.8h-2.1v33.3c0,0.6,0.3,0.8,1,0.8
		H552.8z"/>
	<path class="st5" d="M570.8,156.1V156c0-0.2,0.1-0.3,0.2-0.4l0.5-0.2c0.7-0.2,0.9-0.5,1.1-1.7l6.4-33.5c0.1-0.4,0.2-0.6,0.5-0.6
		h0.3c0.3,0,0.4,0.2,0.5,0.6l6.5,34.2c0.2,0.8,0.4,0.9,1,1.1l0.5,0.1c0.2,0.1,0.3,0.2,0.3,0.4v0.1c0,0.2-0.1,0.3-0.2,0.3h-6.9
		c-0.2,0-0.3-0.1-0.3-0.3V156c0-0.2,0.1-0.3,0.3-0.4l0.5-0.1c0.5-0.1,0.7-0.3,0.7-0.6c0-0.1,0-0.2-0.1-0.4l-1.5-7.9h-6.1L574,154
		c-0.1,0.3-0.1,0.4-0.1,0.5c0,0.4,0.3,0.7,0.9,0.9l0.5,0.2c0.2,0.1,0.2,0.2,0.2,0.4v0.1c0,0.2-0.1,0.3-0.3,0.3h-4.2
		C570.9,156.4,570.8,156.3,570.8,156.1z M581.3,145.6l-2.8-15.4h-0.1l-2.9,15.4H581.3z"/>
	<path class="st5" d="M590.3,156.1V156c0-0.2,0.1-0.3,0.3-0.4l0.5-0.1c0.7-0.2,0.8-0.3,0.8-0.9v-32.9c0-0.6-0.1-0.7-0.8-0.9
		l-0.5-0.1c-0.2-0.1-0.3-0.2-0.3-0.4v0.1c0-0.1,0.1-0.2,0.2-0.2h8c4.9,0,7.2,2.5,7.2,7.8v2.3c0,5.3-2.3,7.8-7.2,7.8
		c-0.8,0-1.7-0.1-2.5-0.3v16.8c0,0.6,0.2,0.7,1.3,1l0.8,0.2c0.2,0.1,0.3,0.2,0.3,0.4v0.1c0,0.2-0.1,0.3-0.3,0.3h-7.7
		C590.4,156.4,590.3,156.3,590.3,156.1z M601.6,133V125c0-2.8-1-3.8-3.7-3.8h-2v15.5c0.6,0.2,1.2,0.3,2,0.3
		C600.6,136.9,601.6,135.8,601.6,133z"/>
	<path class="st5" d="M607.9,156.1V156c0-0.2,0.1-0.3,0.3-0.4l0.5-0.1c0.7-0.2,0.8-0.3,0.8-0.9v-32.9c0-0.6-0.1-0.7-0.8-0.9
		l-0.5-0.1c-0.2-0.1-0.3-0.2-0.3-0.4v0.1c0-0.1,0.1-0.2,0.2-0.2h8c4.9,0,7.2,2.5,7.2,7.8v2.3c0,5.3-2.3,7.8-7.2,7.8
		c-0.8,0-1.7-0.1-2.5-0.3v16.8c0,0.6,0.2,0.7,1.3,1l0.8,0.2c0.2,0.1,0.3,0.2,0.3,0.4v0.1c0,0.2-0.1,0.3-0.3,0.3h-7.6
		C607.9,156.4,607.9,156.3,607.9,156.1z M619.2,133V125c0-2.8-1-3.8-3.7-3.8h-2v15.5c0.6,0.2,1.2,0.3,2,0.3
		C618.2,136.9,619.2,135.8,619.2,133z"/>
	<path class="st5" d="M625.4,156.1V156c0-0.2,0.1-0.3,0.3-0.4l0.5-0.1c0.7-0.2,0.8-0.3,0.8-0.9v-32.9c0-0.6-0.1-0.7-0.8-0.9
		l-0.5-0.1c-0.2-0.1-0.3-0.2-0.3-0.4v0.1c0-0.1,0.1-0.2,0.2-0.2h7.6c0.2,0,0.3,0.1,0.3,0.2v0.1c0,0.2-0.1,0.3-0.3,0.4l-0.8,0.2
		c-1.1,0.3-1.3,0.4-1.3,0.9v32.6c0,0.6,0.3,0.8,1,0.8h1.3c3.1,0,3.9-1,4.8-4.7l0.7-3.5c0.1-0.2,0.2-0.3,0.4-0.3h0.2
		c0.1,0,0.2,0.1,0.2,0.3v8.8c0,0.3-0.2,0.5-0.4,0.5h-13.7C625.4,156.4,625.4,156.3,625.4,156.1z"/>
	<path class="st5" d="M641.8,156.1V156c0-0.2,0.1-0.3,0.3-0.4l0.5-0.1c0.7-0.2,0.8-0.3,0.8-0.9v-32.9c0-0.6-0.1-0.7-0.8-0.9
		l-0.5-0.1c-0.2-0.1-0.3-0.2-0.3-0.4v0.1c0-0.1,0.1-0.2,0.2-0.2h6.7c0.2,0,0.3,0.1,0.3,0.2v0.1c0,0.2-0.1,0.3-0.3,0.4l-0.5,0.1
		c-0.7,0.2-0.8,0.3-0.8,0.9v32.9c0,0.6,0.1,0.7,0.8,0.9l0.5,0.1c0.2,0.1,0.3,0.2,0.3,0.4v0.1c0,0.2-0.1,0.3-0.3,0.3H642
		C641.8,156.4,641.8,156.3,641.8,156.1z"/>
	<path class="st5" d="M652.4,149.4V127c0-4.8,2.5-7.5,6.3-7.5c1.7,0,2.8,0.4,3.8,1.3c0.5,0.5,0.7,0.6,0.9,0.6c0.3,0,0.4-0.2,0.5-0.6
		l0.2-0.9c0.1-0.2,0.1-0.3,0.3-0.3h0.2c0.2,0,0.3,0.1,0.3,0.2v11.8c0,0.2-0.1,0.3-0.3,0.3h-0.2c-0.2,0-0.3-0.1-0.3-0.3l-0.8-4
		c-1-5.4-2.2-7-4.3-7c-2,0-2.8,1.2-2.8,4v27c0,2.8,0.9,3.9,2.9,3.9c2.9,0,4.8-2.3,4.8-6.4v-4.9c0-0.3,0.1-0.4,0.4-0.4h0.3
		c0.3,0,0.4,0.1,0.4,0.4v5.1c0,4.7-2.5,7.5-6.4,7.5C654.9,156.9,652.4,154.1,652.4,149.4z"/>
	<path class="st5" d="M666.8,156.1V156c0-0.2,0.1-0.3,0.2-0.4l0.5-0.2c0.7-0.2,0.9-0.5,1.1-1.7l6.4-33.5c0.1-0.4,0.2-0.6,0.5-0.6
		h0.3c0.3,0,0.4,0.2,0.5,0.6l6.5,34.2c0.2,0.8,0.4,0.9,1,1.1l0.5,0.1c0.2,0.1,0.3,0.2,0.3,0.4v0.1c0,0.2-0.1,0.3-0.2,0.3h-6.9
		c-0.2,0-0.3-0.1-0.3-0.3V156c0-0.2,0.1-0.3,0.3-0.4l0.5-0.1c0.5-0.1,0.7-0.3,0.7-0.6c0-0.1,0-0.2-0.1-0.4l-1.5-7.9h-6.1l-1.3,7.5
		c-0.1,0.3-0.1,0.4-0.1,0.5c0,0.4,0.3,0.7,0.9,0.9l0.5,0.2c0.2,0.1,0.2,0.2,0.2,0.4v0.1c0,0.2-0.1,0.3-0.3,0.3h-4.2
		C666.9,156.4,666.8,156.3,666.8,156.1z M677.2,145.6l-2.8-15.4h-0.1l-2.9,15.4H677.2z"/>
	<path class="st5" d="M686.9,156.1V156c0-0.2,0.1-0.3,0.3-0.4l0.8-0.2c1.1-0.3,1.3-0.4,1.3-1V121h-0.8c-2.4,0-2.7,0.9-3.5,4.7
		l-0.7,3.4c-0.1,0.2-0.2,0.3-0.3,0.3h-0.2c-0.2,0-0.3-0.1-0.3-0.2v-8.8c0-0.3,0.2-0.4,0.4-0.4h14.9c0.3,0,0.4,0.2,0.4,0.4v8.8
		c0,0.2-0.1,0.2-0.2,0.2h-0.2c-0.2,0-0.3-0.1-0.4-0.3l-0.7-3.4c-0.8-3.8-1.1-4.7-3.5-4.7h-0.8v33.3c0,0.6,0.2,0.7,1.3,1l0.8,0.2
		c0.2,0.1,0.3,0.2,0.3,0.4v0.1c0,0.2-0.1,0.3-0.2,0.3h-8.5C687,156.4,686.9,156.3,686.9,156.1z"/>
	<path class="st5" d="M701.3,156.1V156c0-0.2,0.1-0.3,0.3-0.4l0.5-0.1c0.7-0.2,0.8-0.3,0.8-0.9v-32.9c0-0.6-0.1-0.7-0.8-0.9
		l-0.5-0.1c-0.2-0.1-0.3-0.2-0.3-0.4v0.1c0-0.1,0.1-0.2,0.2-0.2h6.7c0.2,0,0.3,0.1,0.3,0.2v0.1c0,0.2-0.1,0.3-0.3,0.4l-0.5,0.1
		c-0.7,0.2-0.8,0.3-0.8,0.9v32.9c0,0.6,0.1,0.7,0.8,0.9l0.5,0.1c0.2,0.1,0.3,0.2,0.3,0.4v0.1c0,0.2-0.1,0.3-0.3,0.3h-6.7
		C701.3,156.4,701.3,156.3,701.3,156.1z"/>
	<path class="st5" d="M711.9,148.6v-20.9c0-5.1,2.7-8.3,7-8.3c4.4,0,7.1,3.1,7.1,8.3v20.9c0,5.1-2.7,8.3-7.1,8.3
		C714.6,156.9,711.9,153.7,711.9,148.6z M721.9,151.6v-26.8c0-3.1-0.8-4.3-3-4.3s-2.9,1.1-2.9,4.3v26.8c0,3.1,0.8,4.3,2.9,4.3
		C721,155.9,721.9,154.7,721.9,151.6z"/>
	<path class="st5" d="M742.8,156.3L732,122.6h-0.1V154c0,0.9,0.2,1.2,0.8,1.5l0.5,0.2c0.2,0.1,0.2,0.2,0.2,0.4v0.1
		c0,0.2-0.1,0.3-0.3,0.3h-3.8c-0.2,0-0.2-0.1-0.2-0.3v-0.1c0-0.2,0.1-0.3,0.2-0.4l0.5-0.2c0.7-0.2,0.8-0.5,0.8-1.5v-32.3
		c0-0.6-0.1-0.7-0.8-0.9l-0.5-0.1c-0.2-0.1-0.3-0.2-0.3-0.4l0,0c0-0.1,0.1-0.2,0.2-0.2h5.7c0.3,0,0.4,0.1,0.4,0.3l6.7,21.4h0.1
		v-19.4c0-0.9-0.2-1.2-0.8-1.5l-0.5-0.2c-0.2-0.1-0.2-0.2-0.2-0.4l0,0c0-0.1,0.1-0.2,0.3-0.2h3.8c0.2,0,0.2,0.1,0.2,0.2v0.1
		c0,0.2-0.1,0.3-0.2,0.4l-0.5,0.2c-0.7,0.2-0.8,0.5-0.8,1.5v33.9c0,0.4-0.1,0.4-0.3,0.4h0C743,156.8,742.9,156.7,742.8,156.3z"/>
</g>
</svg>
