<?xml version="1.0" encoding="utf-8"?>
<!-- Generator: Adobe Illustrator 21.0.0, SVG Export Plug-In . SVG Version: 6.00 Build 0)  -->
<svg version="1.1" id="Layer_1" xmlns="http://www.w3.org/2000/svg" xmlns:xlink="http://www.w3.org/1999/xlink" x="0px" y="0px"
	 viewBox="0 0 750 159" style="enable-background:new 0 0 750 159;" xml:space="preserve">
<style type="text/css">
	.st0{fill:#FFFFFF;}
	.st1{fill:url(#SVGID_1_);}
	.st2{fill:none;stroke:#0B1119;stroke-width:4;stroke-miterlimit:10;}
	.st3{fill:#0B1119;}
	.st4{fill:none;}
	.st5{fill:#E8A588;}
</style>
<path class="st0" d="M418.2,108.8l-11.5-60.9c-0.3-1.4-0.7-1.7-1.9-2l-0.9-0.2c-0.4-0.1-0.5-0.3-0.5-0.8v-0.2c0-0.4,0.2-0.6,0.6-0.6
	h14.2c0.4,0,0.6,0.2,0.6,0.6v0.2c0,0.5-0.1,0.7-0.4,0.8l-0.6,0.2c-0.6,0.2-0.9,0.5-0.9,1c0,0.2,0,0.3,0.1,0.9l5.8,37.4h0.2l3.9-20.7
	L423.9,48c-0.3-1.5-0.6-1.7-1.4-2.1l-0.5-0.2c-0.3-0.1-0.4-0.3-0.4-0.8v-0.2c0-0.4,0.2-0.6,0.6-0.6h14.1c0.4,0,0.6,0.2,0.6,0.6v0.2
	c0,0.5-0.1,0.7-0.5,0.8l-0.9,0.2c-1,0.2-1.3,0.6-1.3,1.1c0,0.2,0,0.3,0.1,0.9l5.8,37.3h0.2l6.9-36.6c0.1-0.5,0.1-0.7,0.1-0.8
	c0-0.9-0.4-1.5-1.4-1.8l-1-0.3c-0.3-0.1-0.4-0.3-0.4-0.8v-0.2c0-0.4,0.2-0.6,0.6-0.6h7.2c0.4,0,0.6,0.2,0.6,0.6v0.2
	c0,0.5-0.1,0.7-0.4,0.8l-1,0.3c-1.2,0.4-1.6,0.8-2,2.9l-11.4,60c-0.1,0.7-0.6,1.1-1,1.1h-0.7c-0.5,0-0.9-0.4-1-1.1l-7.2-38.1H428
	l-7.2,38.1c-0.1,0.7-0.6,1.1-1,1.1h-0.7C418.7,109.9,418.3,109.5,418.2,108.8z"/>
<path class="st0" d="M441.1,108.8v-0.2c0-0.5,0.1-0.7,0.4-0.8l1-0.3c1.2-0.4,1.7-1,2.1-3l12.7-59.9c0.1-0.7,0.6-1.1,1-1.1h0.7
	c0.5,0,0.9,0.4,1,1.1l12.9,60.9c0.3,1.4,0.7,1.7,1.9,2l0.9,0.2c0.4,0.1,0.5,0.3,0.5,0.8v0.2c0,0.4-0.2,0.6-0.6,0.6h-15.2
	c-0.4,0-0.6-0.2-0.6-0.6v-0.2c0-0.5,0.1-0.7,0.5-0.8l0.9-0.2c1-0.2,1.3-0.5,1.3-1.1c0-0.2,0-0.3-0.1-0.8l-2.4-13.1h-10.5l-2.6,12.3
	c-0.1,0.5-0.1,0.6-0.1,0.9c0,0.8,0.6,1.3,1.5,1.6l1,0.3c0.3,0.1,0.4,0.3,0.4,0.8v0.2c0,0.4-0.2,0.6-0.6,0.6h-7.3
	C441.3,109.4,441.1,109.2,441.1,108.8z M459.4,90.6l-4.5-23.8h-0.1l-5,23.8H459.4z"/>
<path class="st0" d="M474.1,108.8v-0.2c0-0.5,0.1-0.7,0.5-0.8l0.9-0.2c1.3-0.3,1.5-0.6,1.5-1.6V47.5c0-1.1-0.2-1.3-1.5-1.6l-0.9-0.2
	c-0.4-0.1-0.5-0.3-0.5-0.8v-0.2c0-0.4,0.2-0.6,0.6-0.6h16.4c0.4,0,0.6,0.2,0.6,0.6v0.2c0,0.5-0.1,0.7-0.5,0.8l-1.6,0.4
	c-1.8,0.4-2.2,0.6-2.2,1.8v57.8c0,1.1,0.6,1.5,1.8,1.5h0.2c6.3,0,8-2,9.8-8.6l1.7-6.2c0.1-0.4,0.3-0.5,0.7-0.5h0.3
	c0.5,0,0.7,0.2,0.7,0.6v16.1c0,0.6-0.3,0.9-0.9,0.9h-27C474.3,109.4,474.1,109.2,474.1,108.8z"/>
<path class="st0" d="M501.5,108.8v-0.2c0-0.5,0.1-0.7,0.5-0.8l0.9-0.2c1.3-0.3,1.5-0.6,1.5-1.6V47.5c0-1.1-0.2-1.3-1.5-1.6l-0.9-0.2
	c-0.4-0.1-0.5-0.3-0.5-0.8v-0.2c0-0.4,0.2-0.6,0.6-0.6h16.4c0.4,0,0.6,0.2,0.6,0.6v0.2c0,0.5-0.1,0.7-0.5,0.8l-1.6,0.4
	c-1.8,0.4-2.2,0.6-2.2,1.8v57.8c0,1.1,0.6,1.5,1.8,1.5h0.2c6.3,0,8-2,9.8-8.6l1.7-6.2c0.1-0.4,0.3-0.5,0.7-0.5h0.3
	c0.5,0,0.7,0.2,0.7,0.6v16.1c0,0.6-0.3,0.9-0.9,0.9h-27C501.7,109.4,501.5,109.2,501.5,108.8z"/>
<path class="st0" d="M543.1,106.4c-0.6-0.7-0.8-0.9-1.1-0.9c-0.4,0-0.6,0.3-1,1.8l-0.6,2.2c-0.1,0.4-0.3,0.5-0.7,0.5h-0.2
	c-0.5,0-0.7-0.2-0.7-0.6V88.2c0-0.4,0.2-0.6,0.7-0.6h0.3c0.4,0,0.6,0.1,0.7,0.5l1.2,6c2.3,11.9,5.8,14,10.1,14
	c4.1,0,6.1-2.7,6.1-8.4c0-2.5-0.8-4.8-3.4-8.9l-10.2-16.3c-4.1-6.6-5.5-11-5.5-17c0-9.5,5.1-14.3,11.6-14.3c3,0,4.9,1.2,6.2,2.2
	c1.7,1.3,2,1.5,2.4,1.5s0.6-0.3,0.7-0.8l0.6-2.2c0.1-0.4,0.3-0.5,0.7-0.5h0.2c0.5,0,0.7,0.2,0.7,0.6v18.4c0,0.4-0.2,0.6-0.7,0.6
	h-0.3c-0.4,0-0.6-0.1-0.7-0.5l-1.2-5.5c-1.6-7-3.5-11.6-8.3-11.6c-3.5,0-5.3,2.4-5.3,6.6c0,2.7,0.9,5.1,3.4,9.1l10.2,16.3
	c4,6.5,5.5,10.9,5.5,17c0,11.3-5.1,15.8-12.6,15.8C548,110.4,545.6,109.3,543.1,106.4z"/>
<path class="st0" d="M569.4,108.8v-0.2c0-0.5,0.1-0.7,0.5-0.8l1.6-0.4c1.8-0.4,2.2-0.6,2.2-1.8V46.3h-0.7c-3.8,0-5,1.6-6.7,8.6
	l-1.5,6.2c-0.1,0.4-0.3,0.5-0.7,0.5h-0.3c-0.5,0-0.7-0.2-0.7-0.6V45c0-0.6,0.3-0.9,0.9-0.9h29.8c0.6,0,0.9,0.3,0.9,0.9v16.1
	c0,0.4-0.2,0.6-0.7,0.6h-0.3c-0.4,0-0.6-0.1-0.7-0.5l-1.5-6.2c-1.7-7-2.9-8.6-6.7-8.6h-0.7v59.3c0,1.2,0.4,1.4,2.2,1.8l1.6,0.4
	c0.4,0.1,0.5,0.3,0.5,0.8v0.2c0,0.4-0.2,0.6-0.6,0.6H570C569.6,109.4,569.4,109.2,569.4,108.8z"/>
<path class="st0" d="M593.7,108.8v-0.2c0-0.5,0.1-0.7,0.5-0.8l0.9-0.2c1.3-0.3,1.5-0.6,1.5-1.6V47.5c0-1.1-0.2-1.3-1.5-1.6l-0.9-0.2
	c-0.4-0.1-0.5-0.3-0.5-0.8v-0.2c0-0.4,0.2-0.6,0.6-0.6h15.5c9.8,0,14.3,4.9,14.3,14.7v2.8c0,6.1-2.9,10.8-9,12.6v0.2
	c5,2,7.7,6.3,8.2,12.6l1.4,18c0.2,1.9,0.9,2.4,2.1,2.7l0.9,0.2c0.4,0.1,0.5,0.3,0.5,0.8v0.2c0,0.4-0.2,0.6-0.6,0.6h-11.5
	c-0.6,0-0.9-0.4-1-0.8c-0.4-1.4-0.7-2.8-0.9-6l-1.1-16.1c-0.6-8.3-1.2-11.2-6-11.2H607V106c0,1.1,0.2,1.3,1.5,1.6l0.9,0.2
	c0.4,0.1,0.5,0.3,0.5,0.8v0.2c0,0.4-0.2,0.6-0.6,0.6h-15C593.9,109.4,593.7,109.2,593.7,108.8z M608.5,73c3.7,0,5.3-1.2,5.3-4.8V51
	c0-3.4-1.5-4.6-5.3-4.6H607V73H608.5z"/>
<path class="st0" d="M626.4,108.8v-0.2c0-0.5,0.1-0.7,0.5-0.8l0.9-0.2c1.3-0.3,1.5-0.6,1.5-1.6V47.5c0-1.1-0.2-1.3-1.5-1.6l-0.9-0.2
	c-0.4-0.1-0.5-0.3-0.5-0.8v-0.2c0-0.4,0.2-0.6,0.6-0.6h27c0.6,0,0.9,0.3,0.9,0.9v14.2c0,0.4-0.2,0.6-0.7,0.6h-0.3
	c-0.4,0-0.6-0.1-0.7-0.5l-1.7-6.2c-1.3-5-3-6.7-8.7-6.7h-3.1v25.4h1.2c4.3,0,6-0.7,6.7-3.6l0.9-3.4c0.1-0.4,0.3-0.5,0.7-0.5h0.3
	c0.5,0,0.7,0.2,0.7,0.6v15.8c0,0.4-0.2,0.6-0.7,0.6h-0.3c-0.4,0-0.6-0.1-0.7-0.5l-0.9-3.4c-0.8-2.9-2.4-3.6-6.7-3.6h-1.2v31.7
	c0,1.1,0.6,1.5,1.8,1.5h1.2c6.3,0,8.2-1.9,9.8-7.7l1.7-6.2c0.1-0.4,0.3-0.5,0.7-0.5h0.3c0.5,0,0.7,0.2,0.7,0.6v15.2
	c0,0.6-0.3,0.9-0.9,0.9h-27.9C626.5,109.4,626.4,109.2,626.4,108.8z"/>
<path class="st0" d="M655.3,108.8v-0.2c0-0.5,0.1-0.7,0.5-0.8l0.9-0.2c1.3-0.3,1.5-0.6,1.5-1.6V47.5c0-1.1-0.2-1.3-1.5-1.6l-0.9-0.2
	c-0.4-0.1-0.5-0.3-0.5-0.8v-0.2c0-0.4,0.2-0.6,0.6-0.6h27c0.6,0,0.9,0.3,0.9,0.9v14.2c0,0.4-0.2,0.6-0.7,0.6h-0.3
	c-0.4,0-0.6-0.1-0.7-0.5l-1.7-6.2c-1.3-5-3-6.7-8.7-6.7h-3.1v25.4h1.2c4.3,0,6-0.7,6.7-3.6l0.9-3.4c0.1-0.4,0.3-0.5,0.7-0.5h0.3
	c0.5,0,0.7,0.2,0.7,0.6v15.8c0,0.4-0.2,0.6-0.7,0.6h-0.3c-0.4,0-0.6-0.1-0.7-0.5l-0.9-3.4c-0.8-2.9-2.4-3.6-6.7-3.6h-1.2v31.7
	c0,1.1,0.6,1.5,1.8,1.5h1.2c6.3,0,8.2-1.9,9.8-7.7l1.7-6.2c0.1-0.4,0.3-0.5,0.7-0.5h0.3c0.5,0,0.7,0.2,0.7,0.6v15.2
	c0,0.6-0.3,0.9-0.9,0.9h-27.9C655.5,109.4,655.3,109.2,655.3,108.8z"/>
<path class="st0" d="M690.8,108.8v-0.2c0-0.5,0.1-0.7,0.5-0.8l1.6-0.4c1.8-0.4,2.2-0.6,2.2-1.8V46.3h-0.7c-3.8,0-5,1.6-6.7,8.6
	l-1.5,6.2c-0.1,0.4-0.3,0.5-0.7,0.5h-0.3c-0.5,0-0.7-0.2-0.7-0.6V45c0-0.6,0.3-0.9,0.9-0.9h29.8c0.6,0,0.9,0.3,0.9,0.9v16.1
	c0,0.4-0.2,0.6-0.7,0.6H715c-0.4,0-0.6-0.1-0.7-0.5l-1.5-6.2c-1.7-7-2.9-8.6-6.7-8.6h-0.7v59.3c0,1.2,0.4,1.4,2.2,1.8l1.6,0.4
	c0.4,0.1,0.5,0.3,0.5,0.8v0.2c0,0.4-0.2,0.6-0.6,0.6h-17.9C690.9,109.4,690.8,109.2,690.8,108.8z"/>
<g>
	<path class="st0" d="M16.5,108.5L5,47.7c-0.3-1.4-0.7-1.7-1.9-2l-0.9-0.2c-0.4-0.1-0.5-0.3-0.5-0.8v-0.2c0-0.4,0.2-0.6,0.6-0.6
		h14.2c0.4,0,0.6,0.2,0.6,0.6v0.2c0,0.5-0.1,0.7-0.4,0.8l-0.6,0.2c-0.6,0.2-0.9,0.5-0.9,1c0,0.2,0,0.3,0.1,0.9l5.7,37.3h0.2
		l3.9-20.7l-3.1-16.4c-0.3-1.5-0.6-1.7-1.4-2.1l-0.5-0.2c-0.3-0.1-0.4-0.3-0.4-0.8v-0.2c0-0.4,0.2-0.6,0.6-0.6h14.1
		c0.4,0,0.6,0.2,0.6,0.6v0.2c0,0.5-0.1,0.7-0.5,0.8l-0.9,0.2c-1,0.2-1.3,0.6-1.3,1.1c0,0.2,0,0.3,0.1,0.9l5.7,37.2h0.2l6.9-36.4
		c0.1-0.5,0.1-0.7,0.1-0.8c0-0.9-0.4-1.5-1.4-1.8l-1-0.3c-0.3-0.1-0.4-0.3-0.4-0.8v-0.2c0-0.4,0.2-0.6,0.6-0.6h7.2
		c0.4,0,0.6,0.2,0.6,0.6v0.2c0,0.5-0.1,0.7-0.4,0.8l-1,0.3c-1.1,0.4-1.6,0.8-2,2.9l-11.4,59.8c-0.1,0.7-0.6,1.1-1,1.1h-0.7
		c-0.5,0-0.9-0.4-1-1.1l-7.2-38h-0.2l-7.2,38c-0.1,0.7-0.6,1.1-1,1.1h-0.7C16.9,109.5,16.6,109.1,16.5,108.5z"/>
	<path class="st0" d="M47.6,93.4V59.6C47.6,49.3,53,43,61.7,43c8.7,0,14.1,6.2,14.1,16.5v33.9c0,10.3-5.4,16.5-14.1,16.5
		C53,110,47.6,103.8,47.6,93.4z M65.4,102.7V50.3c0-3.7-1.1-5.1-3.7-5.1c-2.7,0-3.7,1.3-3.7,5.1v52.4c0,3.7,1.1,5.1,3.7,5.1
		C64.4,107.8,65.4,106.5,65.4,102.7z"/>
	<path class="st0" d="M77.5,108.5v-0.2c0-0.5,0.1-0.7,0.5-0.8l0.9-0.2c1.3-0.3,1.5-0.6,1.5-1.6V47.4c0-1.1-0.2-1.3-1.5-1.6L78,45.5
		c-0.4-0.1-0.5-0.3-0.5-0.8v-0.2c0-0.4,0.2-0.6,0.6-0.6h16.4c0.4,0,0.6,0.2,0.6,0.6v0.2c0,0.5-0.1,0.7-0.5,0.8l-1.6,0.4
		c-1.8,0.4-2.2,0.6-2.2,1.8v57.6c0,1.1,0.6,1.5,1.8,1.5h0.2c6.3,0,7.9-2,9.8-8.6l1.7-6.2c0.1-0.4,0.3-0.5,0.7-0.5h0.3
		c0.5,0,0.7,0.2,0.7,0.6v16.1c0,0.6-0.3,0.9-0.9,0.9H78.1C77.7,109,77.5,108.8,77.5,108.5z"/>
	<path class="st0" d="M114.7,108.5l-12-60.7c-0.3-1.4-0.7-1.7-1.9-2l-0.9-0.2c-0.4-0.1-0.5-0.3-0.5-0.8v-0.2c0-0.4,0.2-0.6,0.6-0.6
		h15.1c0.4,0,0.6,0.2,0.6,0.6v0.2c0,0.5-0.1,0.7-0.5,0.8l-0.9,0.2c-1,0.2-1.3,0.5-1.3,1c0,0.2,0,0.3,0.1,0.9l6.3,37.2h0.2l7.1-36.3
		c0.1-0.5,0.1-0.7,0.1-0.9c0-0.9-0.6-1.4-1.5-1.7l-1-0.3c-0.3-0.1-0.4-0.3-0.4-0.8v-0.2c0-0.4,0.2-0.6,0.6-0.6h7.3
		c0.4,0,0.6,0.2,0.6,0.6v0.2c0,0.5-0.1,0.7-0.4,0.8l-1,0.3c-1.2,0.4-1.7,1-2.1,3l-11.7,59.7c-0.1,0.7-0.6,1.1-1,1.1h-0.7
		C115.2,109.5,114.8,109.1,114.7,108.5z"/>
	<path class="st0" d="M131.5,108.5v-0.2c0-0.5,0.1-0.7,0.5-0.8l0.9-0.2c1.3-0.3,1.5-0.6,1.5-1.6V47.4c0-1.1-0.2-1.3-1.5-1.6
		l-0.9-0.2c-0.4-0.1-0.5-0.3-0.5-0.8v-0.2c0-0.4,0.2-0.6,0.6-0.6H159c0.6,0,0.9,0.3,0.9,0.9V59c0,0.4-0.2,0.6-0.7,0.6h-0.3
		c-0.4,0-0.6-0.1-0.7-0.5l-1.7-6.2c-1.3-5-3-6.7-8.7-6.7h-3.1v25.3h1.2c4.3,0,5.9-0.7,6.7-3.5l0.9-3.3c0.1-0.4,0.3-0.5,0.7-0.5h0.3
		c0.5,0,0.7,0.2,0.7,0.6v15.8c0,0.4-0.2,0.6-0.7,0.6h-0.3c-0.4,0-0.6-0.1-0.7-0.5l-0.9-3.3c-0.8-2.9-2.4-3.5-6.7-3.5h-1.2v31.6
		c0,1.1,0.6,1.5,1.8,1.5h1.1c6.3,0,8.1-1.9,9.8-7.7l1.7-6.2c0.1-0.4,0.3-0.5,0.7-0.5h0.3c0.5,0,0.7,0.2,0.7,0.6v15.1
		c0,0.6-0.3,0.9-0.9,0.9h-27.8C131.7,109,131.5,108.8,131.5,108.5z"/>
	<path class="st0" d="M166.1,106.1c-0.6-0.7-0.8-0.9-1.1-0.9c-0.4,0-0.6,0.3-1,1.8l-0.6,2.2c-0.1,0.4-0.3,0.5-0.7,0.5h-0.2
		c-0.5,0-0.7-0.2-0.7-0.6V87.9c0-0.4,0.2-0.6,0.7-0.6h0.3c0.4,0,0.6,0.1,0.7,0.5l1.1,5.9c2.3,11.9,5.7,14,10,14
		c4.1,0,6.1-2.7,6.1-8.3c0-2.5-0.8-4.8-3.3-8.9l-10.1-16.3c-4.1-6.6-5.5-11-5.5-16.9c0-9.5,5.1-14.2,11.6-14.2c3,0,4.9,1.1,6.2,2.2
		c1.7,1.3,2,1.5,2.4,1.5s0.6-0.3,0.7-0.8l0.6-2.2c0.1-0.4,0.3-0.5,0.7-0.5h0.2c0.5,0,0.7,0.2,0.7,0.6v18.4c0,0.4-0.2,0.6-0.7,0.6
		H184c-0.4,0-0.6-0.1-0.7-0.5l-1.2-5.5c-1.6-7-3.4-11.6-8.3-11.6c-3.4,0-5.3,2.4-5.3,6.6c0,2.7,0.9,5.1,3.3,9.1L182,77.3
		c4,6.5,5.5,10.9,5.5,16.9c0,11.3-5.1,15.8-12.5,15.8C171,110,168.6,108.9,166.1,106.1z"/>
</g>
<g>
	<g>
		<path class="st0" d="M207.5,63.1L207.5,63.1c0-0.2,0-0.3,0.1-0.3l0.3-0.1c0.4-0.1,0.5-0.2,0.5-0.5l-0.2-17.6
			c0-0.3-0.1-0.4-0.5-0.5l-0.3-0.1c-0.1,0-0.1-0.1-0.1-0.2l0-0.1c0-0.1,0.1-0.2,0.2-0.2l8.1-0.1c0.2,0,0.3,0.1,0.3,0.3l0.1,4.3
			c0,0.1-0.1,0.2-0.2,0.2l-0.1,0c-0.1,0-0.2,0-0.2-0.1l-0.5-1.9c-0.4-1.5-0.9-2-2.6-2l-0.9,0l0.1,8.3l0.4,0c1.3,0,1.8-0.2,2-1.1
			l0.2-1c0-0.1,0.1-0.1,0.2-0.1l0.1,0c0.1,0,0.2,0.1,0.2,0.2l0.1,4.8c0,0.1-0.1,0.2-0.2,0.2l-0.1,0c-0.1,0-0.2,0-0.2-0.1l-0.3-1
			c-0.2-0.9-0.7-1.1-2-1l-0.4,0l0.1,8.9c0,0.4,0.1,0.4,0.7,0.5l0.5,0.1c0.1,0,0.1,0.1,0.1,0.2l0,0.1c0,0.1-0.1,0.2-0.2,0.2l-4.9,0.1
			C207.5,63.3,207.5,63.2,207.5,63.1z"/>
	</g>
	<g>
		<path class="st0" d="M198.1,58.5L198,48.3c0-3.1,1.6-5,4.2-5c2.6,0,4.3,1.8,4.3,4.9l0.1,10.2c0,3.1-1.6,5-4.2,5
			C199.8,63.4,198.1,61.6,198.1,58.5z M203.5,61.2l-0.2-15.8c0-1.1-0.3-1.5-1.1-1.5c-0.8,0-1.1,0.4-1.1,1.5l0.2,15.8
			c0,1.1,0.3,1.5,1.1,1.5C203.2,62.7,203.5,62.3,203.5,61.2z"/>
	</g>
</g>
<linearGradient id="SVGID_1_" gradientUnits="userSpaceOnUse" x1="3811.2603" y1="1641.0234" x2="3811.2603" y2="1495.4036" gradientTransform="matrix(1 0 0 1 -3503.7466 -1491.9185)">
	<stop  offset="0" style="stop-color:#CC8A6D"/>
	<stop  offset="9.602536e-02" style="stop-color:#D49C83"/>
	<stop  offset="0.2963" style="stop-color:#E8C9BC"/>
	<stop  offset="0.5107" style="stop-color:#FFFFFF"/>
	<stop  offset="0.6234" style="stop-color:#DEDEDD"/>
	<stop  offset="0.793" style="stop-color:#B3B1B0"/>
	<stop  offset="0.9242" style="stop-color:#989593"/>
	<stop  offset="1" style="stop-color:#8E8B89"/>
</linearGradient>
<circle class="st1" cx="307.5" cy="76.3" r="72.8"/>
<ellipse transform="matrix(0.9875 -0.1578 0.1578 0.9875 -8.2266 49.4575)" class="st2" cx="307.4" cy="76.5" rx="72.8" ry="72.8"/>
<g>
	<path class="st3" d="M361.9,94.3c0.1-0.5,0.3-1,0.5-1.5c-0.2,0.3-0.4,0.6-0.5,1C361.9,93.9,361.9,94.1,361.9,94.3z"/>
	<path class="st3" d="M362.5,92.8c0.4-0.8,0.8-1.6,1.2-2.4c-0.5,0.8-0.9,1.7-1.2,2.6C362.4,92.8,362.4,92.8,362.5,92.8z"/>
	<path class="st3" d="M303.5,50.8c0.9-0.7,2.5,2.1,3.6,0.4c0.3-0.5,1.2,0.4,1.8,0.2c0.6-0.1,1.2-0.3,1.8-0.3
		c-0.2-1.1-0.6-2.2-1.5-2.9c-3.4-3-9.9,1.5-8.1,5.5C302.1,52.1,301.9,52.1,303.5,50.8z"/>
</g>
<g>
	<path class="st3" d="M256.8,82.4c0,0,19.4,14.1,26.7,17c7.3,2.9,13.6,2.9,13.6,2.9s-2.2,1.5-2.4,3.4c-0.5,3.4,1.5,6.3,1.5,6.3
		s-17.5,1-26.7-2.4c-7-2.6-14.1-7.3-14.6-15.6C254.6,88.5,256.8,82.4,256.8,82.4z"/>
	<path class="st3" d="M296.7,102.3c0,0-1.5,1.5-1.5,2.9c0,1-0.5,2.4,1.5,5.3c1.3,2,4.9,1.5,4.9,1.5s-4.9,11.2,2.4,15.1
		c7.3,3.9,16.5,1.5,19,0c2.4-1.5,1.9-6.8,1.9-6.8l-7.3-1c0,0-4.4,4.4-8.3,2.4c-4-2-5.6-7.4-4.9-9.7c1.5-4.4-1.9-7.8-2.9-8.7
		C300.6,102.3,296.7,102.3,296.7,102.3z"/>
</g>
<g>
	<path class="st4" d="M338,110.8c0,0,0-0.1,0-0.1C338,110.6,338,110.7,338,110.8z"/>
	<path class="st4" d="M363.5,90.3c0,0,0,0.1-0.1,0.1C363.5,90.3,363.6,90.2,363.5,90.3z"/>
	<path class="st4" d="M362.5,92.7c0.1-0.3,0.4-0.9,0.6-1.4C362.9,91.8,362.7,92.2,362.5,92.7z"/>
	<path class="st4" d="M362.1,93.9c-0.1,0.2-0.1,0.4-0.1,0.4C362,94.2,362,94.1,362.1,93.9z"/>
	<path class="st4" d="M323.4,94c-1.7,0.6-1.1,1.9-2.8,1.2c-0.2-0.1-0.3,0.1-0.2,0.3c2.1,1.9,4.2,5.2,3.7,3.2
		c-0.4-1.9,4.6-1.8,2.8-4.7C326.2,92.9,325.1,93.4,323.4,94z"/>
	<path class="st3" d="M338.3,112.7c-0.2-0.8-0.3-1.6-0.3-1.9C337.9,111.5,338,112.1,338.3,112.7z"/>
	<path class="st3" d="M362.4,92.9c0-0.1,0.1-0.1,0.1-0.2C362.4,92.9,362.4,92.9,362.4,92.9z"/>
	<path class="st3" d="M338.6,114.9C338.5,114.5,338.4,114.5,338.6,114.9L338.6,114.9z"/>
	<path class="st3" d="M363.1,91.3c0-0.1,0.1-0.2,0.1-0.3c0.1-0.3,0.2-0.5,0.3-0.6C363.4,90.6,363.3,90.9,363.1,91.3z"/>
	<path class="st3" d="M248.1,62.5c2.5-2.3,4.7-4.8,8.4-5.6c-0.3,0.6-0.5,0.9-0.6,1.2c-1.8,4.5-4.1,8.9-5.4,13.6
		c-4.1,14.8-1.6,28.7,7.1,41.3c6.1,8.9,14.1,15.7,24,20c3,1.3,6,2.5,9.1,3.8c0.2-0.5,0.1-0.3,0.4-0.8c-7.8-4.8-14.3-10.8-17-20.1
		c-0.4,0-0.4,0-0.9,0c-0.7,2-1.5,4-2.2,6.1c0,0.1-0.2,0.1-0.3,0c-10.9-12-21.1-34.4-5.6-48.3c0.1-0.1,0-0.3-0.1-0.3
		c-2.8,0.3-4.8,1.9-7,3.5c-0.1,0.1-0.3,0-0.3-0.2c1.1-8.8,4.8-15.5,11.7-20.5c0.6-0.4-3.4,2-3.1,1.3c1.3-2.6,2.1-6.5,3.7-8.8
		c3.1-4.6,3.1-11.8,4.9-17.4c0-0.1,0.3-0.2,0.3,0c0.9,2.1,5,12.4,8.8,14.5c0.1,0,0.2,0,0.2-0.1c0.9-2.4,1.8-12.8,2.7-15.4
		c0-0.1,0.2-0.2,0.3-0.1c3.1,3.6,8.4,10.6,8.3,14.9c0,0.1,0.1,0.2,0.2,0.1c3.5-2.2,6.4-2.5,10.9-2.2c4.2,0.3,7.3,2.3,7.8,2.6
		c0,0,0.1,0,0.1,0c1.3-0.4,18.9-6.6,24.8-6.5c0.1,0,0.1,0.1,0.2,0.1c1.8,8.6,0.2,10.3-2,13.4c-2.3,3.2-4.6,2.8-9.5,5.6
		c-1.1,0.6-2.2,3-2.4,3.5c0,0.1-0.1,0.1-0.2,0.1l-4.2-0.8c-0.1,0-0.2,0-0.2,0.1l-1.2,3.2c0,0.1-0.1,0.1-0.2,0.1
		c-0.7-0.3-3.3-1.6-4-1.7c-0.5-0.1-1.3,2.5-1.5,3.1c0,0.1-0.1,0.1-0.2,0.1c-0.6-0.1-3-0.4-3.8-0.2c-9.6,2.6-6.5,4.2-6.6,4.9
		c0,0.6,1.1,5.4,6.4,2.2c1.8-1.1,5.5-2,8-2.6c7.1-1.6,11,1.4,10.5,1.8c-3.8,2.7-2.4,0.8-4.5,4.9c0,0.1-0.2,0.1-0.2,0.1
		c-7.4-4.3-9.3,2.4-15,4.2c-4.8,1.5-8,3.2-9.9,8.9c-0.4,1.1-1.5,1.6-1.7,2.8c-0.3,1.8-0.7,6.1,2.1,6.5c3.7,0.5,9.6-0.1,14.4,0
		c2.3,0.1,1.2,1.6,2.6,3.4c0,0,0,0,0,0c2.7,5.6,6.4,5.6,11.5,5.1c0.1,0,0.2,0.1,0.2,0.2c-0.4,5.2,6.3,6,10.1,9
		c0.1,0.1,0.2,0,0.3-0.1c0.5-1,0.5-1.8,0.4-2.2c-0.2-0.4-0.1-0.4,0,0c0,0.1,0.1,0.2,0.2,0.3c0.1,0.1-0.2-1.3-0.4-2.5
		c-0.3-0.5-0.5-1.1-0.3-1.9c0-0.1,0-0.1,0-0.1c0,0,0,0.1,0,0.1c0,0.3,0.1,1.1,0.3,1.9c1.9,3,10.9,2.7,13.3,4.6c0.1,0.1,0.2,0,0.2,0
		c2.4-3.2-0.1-3.3,2.3-6.6c1.3-1.7,0.5-1,1.7-2.7c0.4-0.5,0.9-1.6,1.4-1.9c2.5-1.8,1.7,0.7,5.6-4.4c3.7-4.9,3.4-10.8,4.2-15.1
		c0-0.2-0.1-0.3-0.3-0.2c-1.1,1-2.3,2.4-3.1,3.9c0,0,0,0,0,0c-0.3,0.6-0.6,1.2-0.9,1.8c-0.3,0.7-0.6,1.4-0.7,1.8
		c0,0.1-0.1,0.3-0.1,0.4c0,0,0-0.2,0.1-0.4c0.1-0.3,0.2-0.7,0.3-1.1c0,0.1,0,0,0.1-0.2c0.2-0.5,0.4-0.9,0.6-1.4
		c0.2-0.4,0.3-0.7,0.4-0.9c0-0.1,0.1-0.1,0.1-0.1c0-0.1,0,0-0.1,0.1c-0.1,0.1-0.1,0.3-0.3,0.6c0.1-0.2,0.3-0.5,0.4-0.7c0,0,0,0,0,0
		c5.6-12.5,6.2-25.5,1-38.4c-6.4-15.8-18-26.8-34.1-33c-2.4-0.9-4.8-1.6-7.2-2.4c-0.2,0-0.3,0.1-0.2,0.3c1.9,2.5,4.1,4.6,5,8
		c0,0.1-0.1,0.3-0.2,0.2c-0.7-0.4-1.2-0.6-1.7-0.9c-18.5-9.2-36.6-9.8-54.2,2.4c-12.7,8.8-20,21-24.2,35.7
		C247.7,62.4,247.9,62.6,248.1,62.5z M324.1,98.7c0.5,2-1.6-1.3-3.7-3.2c-0.1-0.1,0-0.3,0.2-0.3c1.7,0.7,1.1-0.6,2.8-1.2
		c1.7-0.6,2.8-1.1,3.5-0.1C328.7,96.9,323.6,96.7,324.1,98.7z M344,52c0,0,0.4,0.3,1,0c1-0.5,1-1.9,1-1.9l2.9,4.9l3.4-4.4l-2.4-6.3
		l-3.4,1.9c0,0,0.1-1-0.5-1.9c-1-1.5-1.5-1-1.5-1v-1v-1c0,0,3.4-1,9.7,5.3s14,23.6,14,23.6v8.3c0,0-5-10-14.4-17.2
		c-6.3-4.9-10.2-5.3-10.2-5.3L344,52z"/>
	<path class="st3" d="M362.4,92.9c-0.1,0.4-0.2,0.7-0.3,1.1c0.1-0.4,0.4-1.1,0.7-1.8c-0.1,0.2-0.2,0.4-0.3,0.6
		C362.4,92.8,362.4,92.8,362.4,92.9z"/>
	<path class="st3" d="M362.5,92.7c0,0.1-0.1,0.1-0.1,0.2C362.4,92.8,362.4,92.8,362.5,92.7c0.1-0.1,0.2-0.3,0.3-0.5
		c0.2-0.4,0.3-0.8,0.5-1.1c0,0.1-0.1,0.2-0.1,0.3C362.9,91.8,362.6,92.4,362.5,92.7z"/>
</g>
<g>
	<path class="st5" d="M411.5,149.5c-0.4-0.4-0.5-0.5-0.7-0.5c-0.3,0-0.4,0.2-0.5,0.9l-0.2,1c-0.1,0.2-0.2,0.3-0.4,0.3h-0.2
		c-0.1,0-0.2-0.1-0.2-0.2v-11.6c0-0.2,0.1-0.2,0.2-0.2h0.2c0.2,0,0.3,0.1,0.4,0.3l0.6,3.6c0.9,5.7,2.7,7.3,5.3,7.3
		c2.6,0,3.7-1.6,3.7-5.1c0-1.6-0.4-3.3-1.9-5.6l-5.5-8.4c-2.1-3.2-2.8-5.8-2.8-8.6c0-4.7,2.4-7.2,5.7-7.2c1.4,0,2.6,0.5,3.4,1.3
		c0.6,0.6,0.8,0.7,1,0.7c0.3,0,0.4-0.2,0.5-0.6l0.2-0.9c0.1-0.2,0.1-0.3,0.3-0.3h0.2c0.2,0,0.3,0.1,0.3,0.2v10
		c0,0.2-0.1,0.3-0.3,0.3h-0.2c-0.2,0-0.3-0.1-0.3-0.3l-0.6-2.9c-0.8-4.5-2.1-6.4-4.6-6.4c-2,0-3.1,1.3-3.1,4.1
		c0,1.8,0.5,3.4,1.9,5.7l5.5,8.4c2.1,3.2,2.8,5.7,2.8,8.6c0,5.5-2.4,8.1-6.2,8.1C414,151.3,412.8,150.7,411.5,149.5z"/>
	<path class="st5" d="M424.4,150.5v-0.1c0-0.2,0.1-0.3,0.3-0.4l0.5-0.1c0.7-0.2,0.8-0.3,0.8-0.9v-31.7c0-0.6-0.1-0.7-0.8-0.9
		l-0.5-0.1c-0.2-0.1-0.3-0.2-0.3-0.4V116c0-0.1,0.1-0.2,0.2-0.2h13.2c0.3,0,0.4,0.2,0.4,0.4v7.5c0,0.2-0.1,0.2-0.2,0.2h-0.2
		c-0.2,0-0.3-0.1-0.4-0.3l-0.7-3.3c-0.6-2.7-1.3-3.5-4-3.5h-2.9v15h1.7c2,0,2.6-0.4,3-2l0.4-1.9c0.1-0.2,0.2-0.3,0.4-0.3h0.2
		c0.1,0,0.2,0.1,0.2,0.3v8.6c0,0.2-0.1,0.2-0.2,0.2h-0.2c-0.2,0-0.3-0.1-0.4-0.3l-0.4-1.9c-0.4-1.5-1-1.9-3-1.9h-1.7v16.1
		c0,0.6,0.2,0.7,1.3,1l0.8,0.2c0.2,0.1,0.3,0.2,0.3,0.4v0.1c0,0.2-0.1,0.3-0.3,0.3h-7.3C424.5,150.8,424.4,150.7,424.4,150.5z"/>
	<path class="st5" d="M443.6,150.5v-0.1c0-0.2,0.1-0.3,0.3-0.4l0.8-0.2c1.1-0.3,1.3-0.4,1.3-1v-32.1h-0.8c-2.3,0-2.6,0.9-3.4,4.5
		l-0.7,3.3c-0.1,0.2-0.2,0.3-0.3,0.3h-0.2c-0.2,0-0.3-0.1-0.3-0.2v-8.5c0-0.3,0.2-0.4,0.4-0.4h14.4c0.3,0,0.4,0.2,0.4,0.4v8.5
		c0,0.2-0.1,0.2-0.2,0.2h-0.2c-0.2,0-0.3-0.1-0.4-0.3l-0.7-3.3c-0.8-3.7-1.1-4.5-3.4-4.5h-0.9v32.1c0,0.6,0.2,0.7,1.3,1l0.8,0.2
		c0.2,0.1,0.3,0.2,0.3,0.4v0.1c0,0.2-0.1,0.3-0.2,0.3h-8.1C443.7,150.8,443.6,150.7,443.6,150.5z"/>
	<path class="st5" d="M468.5,150.5v-0.1c0-0.2,0.1-0.3,0.3-0.4l0.8-0.2c1.1-0.3,1.3-0.4,1.3-1v-15.2l-4.6-16.1
		c-0.2-0.8-0.4-0.9-1.1-1.1l-0.5-0.1c-0.2-0.1-0.3-0.2-0.3-0.4V116c0-0.1,0.1-0.2,0.2-0.2h6.7c0.2,0,0.3,0.1,0.3,0.2v0.1
		c0,0.2-0.1,0.3-0.3,0.4l-0.5,0.1c-0.5,0.1-0.7,0.3-0.7,0.5c0,0.1,0,0.2,0.1,0.4l3.9,13.7h0.1l3.8-13.2c0.1-0.3,0.1-0.4,0.1-0.6
		c0-0.5-0.3-0.7-0.8-0.8l-0.5-0.2c-0.2-0.1-0.2-0.2-0.2-0.4V116c0-0.1,0.1-0.2,0.3-0.2h4c0.2,0,0.3,0.1,0.3,0.2v0.1
		c0,0.2-0.1,0.3-0.2,0.4l-0.5,0.2c-0.7,0.2-1,0.5-1.3,1.6l-4.3,15.1v15.6c0,0.6,0.2,0.7,1.3,1l0.8,0.2c0.2,0.1,0.3,0.2,0.3,0.4v0.1
		c0,0.2-0.1,0.3-0.3,0.3h-8.1C468.5,150.8,468.5,150.7,468.5,150.5z"/>
	<path class="st5" d="M482.5,150.5v-0.1c0-0.2,0.1-0.3,0.3-0.4l0.5-0.1c0.7-0.2,0.8-0.3,0.8-0.9v-31.7c0-0.6-0.1-0.7-0.8-0.9
		l-0.5-0.1c-0.2-0.1-0.3-0.2-0.3-0.4V116c0-0.1,0.1-0.2,0.2-0.2h6.5c0.2,0,0.3,0.1,0.3,0.2v0.1c0,0.2-0.1,0.3-0.3,0.4l-0.5,0.1
		c-0.7,0.2-0.8,0.3-0.8,0.9v31.7c0,0.6,0.1,0.7,0.8,0.9l0.5,0.1c0.2,0.1,0.3,0.2,0.3,0.4v0.1c0,0.2-0.1,0.3-0.3,0.3h-6.5
		C482.6,150.8,482.5,150.7,482.5,150.5z"/>
	<path class="st5" d="M491.6,150.5v-0.1c0-0.2,0.1-0.3,0.3-0.4l0.5-0.1c0.7-0.2,0.8-0.3,0.8-0.9v-31.7c0-0.6-0.1-0.7-0.8-0.9
		l-0.5-0.1c-0.2-0.1-0.3-0.2-0.3-0.4V116c0-0.1,0.1-0.2,0.2-0.2H505c0.3,0,0.4,0.2,0.4,0.4v7.5c0,0.2-0.1,0.2-0.2,0.2h-0.2
		c-0.2,0-0.3-0.1-0.4-0.3l-0.7-3.3c-0.6-2.7-1.3-3.5-4-3.5h-2.9v13.8h1.7c2,0,2.6-0.4,3-1.9l0.4-1.9c0.1-0.2,0.2-0.3,0.4-0.3h0.2
		c0.1,0,0.2,0.1,0.2,0.2v8.6c0,0.2-0.1,0.3-0.2,0.3h-0.2c-0.2,0-0.3-0.1-0.4-0.3l-0.4-1.9c-0.4-1.5-1-2-3-2h-1.7V149
		c0,0.6,0.3,0.8,1,0.8h1.9c3,0,3.9-0.9,4.6-4l0.7-3.4c0.1-0.2,0.2-0.3,0.4-0.3h0.2c0.1,0,0.2,0.1,0.2,0.3v8c0,0.3-0.2,0.5-0.4,0.5
		h-13.7C491.7,150.8,491.6,150.7,491.6,150.5z"/>
	<path class="st5" d="M508.4,150.5v-0.1c0-0.2,0.1-0.3,0.3-0.4l0.5-0.1c0.7-0.2,0.8-0.3,0.8-0.9v-31.7c0-0.6-0.1-0.7-0.8-0.9
		l-0.5-0.1c-0.2-0.1-0.3-0.2-0.3-0.4V116c0-0.1,0.1-0.2,0.2-0.2h7.3c0.2,0,0.3,0.1,0.3,0.2v0.1c0,0.2-0.1,0.3-0.3,0.4l-0.8,0.2
		c-1.1,0.3-1.3,0.4-1.3,0.9V149c0,0.6,0.3,0.8,1,0.8h1.3c3,0,3.8-1,4.6-4.5l0.7-3.4c0.1-0.2,0.2-0.3,0.4-0.3h0.2
		c0.1,0,0.2,0.1,0.2,0.3v8.5c0,0.3-0.2,0.5-0.4,0.5h-13.2C508.4,150.8,508.4,150.7,508.4,150.5z"/>
	<path class="st5" d="M524.2,150.5v-0.1c0-0.2,0.1-0.3,0.3-0.4l0.5-0.1c0.7-0.2,0.8-0.3,0.8-0.9v-31.7c0-0.6-0.1-0.7-0.8-0.9
		l-0.5-0.1c-0.2-0.1-0.3-0.2-0.3-0.4V116c0-0.1,0.1-0.2,0.2-0.2h7.8c4.7,0,6.9,2.5,6.9,7.9v19.1c0,5.4-2.2,8-6.9,8h-7.8
		C524.2,150.8,524.2,150.7,524.2,150.5z M531.6,149.8c2.6,0,3.6-1,3.6-3.7v-25.5c0-2.7-1-3.7-3.6-3.7h-2V149c0,0.6,0.3,0.8,1,0.8
		H531.6z"/>
	<path class="st5" d="M549,150.5v-0.1c0-0.2,0.1-0.3,0.2-0.4l0.5-0.2c0.7-0.2,0.9-0.5,1.1-1.6l6.2-32.3c0.1-0.4,0.2-0.6,0.5-0.6h0.3
		c0.3,0,0.4,0.2,0.5,0.6l6.3,32.9c0.2,0.8,0.4,0.9,1,1.1l0.5,0.1c0.2,0.1,0.3,0.2,0.3,0.4v0.1c0,0.2-0.1,0.3-0.2,0.3h-6.6
		c-0.2,0-0.3-0.1-0.3-0.3v-0.1c0-0.2,0.1-0.3,0.3-0.4l0.5-0.1c0.5-0.1,0.7-0.3,0.7-0.6c0-0.1,0-0.2-0.1-0.4l-1.4-7.6h-5.9l-1.3,7.2
		c-0.1,0.3-0.1,0.4-0.1,0.5c0,0.4,0.3,0.7,0.9,0.9l0.5,0.2c0.2,0.1,0.2,0.2,0.2,0.4v0.1c0,0.2-0.1,0.3-0.3,0.3h-4
		C549.1,150.8,549,150.7,549,150.5z M559.1,140.4l-2.7-14.8h-0.1l-2.8,14.8H559.1z"/>
	<path class="st5" d="M567.8,150.5v-0.1c0-0.2,0.1-0.3,0.3-0.4l0.5-0.1c0.7-0.2,0.8-0.3,0.8-0.9v-31.7c0-0.6-0.1-0.7-0.8-0.9
		l-0.5-0.1c-0.2-0.1-0.3-0.2-0.3-0.4V116c0-0.1,0.1-0.2,0.2-0.2h7.7c4.7,0,6.9,2.4,6.9,7.5v2.2c0,5.1-2.2,7.5-6.9,7.5
		c-0.8,0-1.6-0.1-2.4-0.3v16.2c0,0.6,0.2,0.7,1.3,1l0.8,0.2c0.2,0.1,0.3,0.2,0.3,0.4v0.1c0,0.2-0.1,0.3-0.3,0.3H568
		C567.9,150.8,567.8,150.7,567.8,150.5z M578.7,128.3v-7.8c0-2.7-1-3.7-3.6-3.7h-1.9v14.9c0.6,0.2,1.2,0.3,1.9,0.3
		C577.7,132,578.7,131,578.7,128.3z"/>
	<path class="st5" d="M584.7,150.5v-0.1c0-0.2,0.1-0.3,0.3-0.4l0.5-0.1c0.7-0.2,0.8-0.3,0.8-0.9v-31.7c0-0.6-0.1-0.7-0.8-0.9
		l-0.5-0.1c-0.2-0.1-0.3-0.2-0.3-0.4V116c0-0.1,0.1-0.2,0.2-0.2h7.7c4.7,0,6.9,2.4,6.9,7.5v2.2c0,5.1-2.2,7.5-6.9,7.5
		c-0.8,0-1.6-0.1-2.4-0.3v16.2c0,0.6,0.2,0.7,1.3,1l0.8,0.2c0.2,0.1,0.3,0.2,0.3,0.4v0.1c0,0.2-0.1,0.3-0.3,0.3h-7.3
		C584.7,150.8,584.7,150.7,584.7,150.5z M595.6,128.3v-7.8c0-2.7-1-3.7-3.6-3.7h-1.9v14.9c0.6,0.2,1.2,0.3,1.9,0.3
		C594.6,132,595.6,131,595.6,128.3z"/>
	<path class="st5" d="M601.6,150.5v-0.1c0-0.2,0.1-0.3,0.3-0.4l0.5-0.1c0.7-0.2,0.8-0.3,0.8-0.9v-31.7c0-0.6-0.1-0.7-0.8-0.9
		l-0.5-0.1c-0.2-0.1-0.3-0.2-0.3-0.4V116c0-0.1,0.1-0.2,0.2-0.2h7.3c0.2,0,0.3,0.1,0.3,0.2v0.1c0,0.2-0.1,0.3-0.3,0.4l-0.8,0.2
		c-1.1,0.3-1.3,0.4-1.3,0.9V149c0,0.6,0.3,0.8,1,0.8h1.3c3,0,3.8-1,4.6-4.5l0.7-3.4c0.1-0.2,0.2-0.3,0.4-0.3h0.2
		c0.1,0,0.2,0.1,0.2,0.3v8.5c0,0.3-0.2,0.5-0.4,0.5h-13.2C601.6,150.8,601.6,150.7,601.6,150.5z"/>
	<path class="st5" d="M617.4,150.5v-0.1c0-0.2,0.1-0.3,0.3-0.4l0.5-0.1c0.7-0.2,0.8-0.3,0.8-0.9v-31.7c0-0.6-0.1-0.7-0.8-0.9
		l-0.5-0.1c-0.2-0.1-0.3-0.2-0.3-0.4V116c0-0.1,0.1-0.2,0.2-0.2h6.5c0.2,0,0.3,0.1,0.3,0.2v0.1c0,0.2-0.1,0.3-0.3,0.4l-0.5,0.1
		c-0.7,0.2-0.8,0.3-0.8,0.9v31.7c0,0.6,0.1,0.7,0.8,0.9l0.5,0.1c0.2,0.1,0.3,0.2,0.3,0.4v0.1c0,0.2-0.1,0.3-0.3,0.3h-6.5
		C617.4,150.8,617.4,150.7,617.4,150.5z"/>
	<path class="st5" d="M627.6,144.1v-21.6c0-4.6,2.4-7.2,6.1-7.2c1.6,0,2.7,0.4,3.7,1.3c0.5,0.5,0.7,0.6,0.9,0.6
		c0.3,0,0.4-0.2,0.5-0.6l0.2-0.9c0.1-0.2,0.1-0.3,0.3-0.3h0.2c0.2,0,0.3,0.1,0.3,0.2V127c0,0.2-0.1,0.3-0.3,0.3h-0.2
		c-0.2,0-0.3-0.1-0.3-0.3l-0.8-3.9c-1-5.2-2.1-6.7-4.1-6.7c-1.9,0-2.7,1.2-2.7,3.9v26c0,2.7,0.9,3.8,2.8,3.8c2.8,0,4.6-2.2,4.6-6.2
		v-4.7c0-0.3,0.1-0.4,0.4-0.4h0.3c0.3,0,0.4,0.1,0.4,0.4v4.9c0,4.5-2.4,7.2-6.2,7.2C630,151.3,627.6,148.6,627.6,144.1z"/>
	<path class="st5" d="M641.5,150.5v-0.1c0-0.2,0.1-0.3,0.2-0.4l0.5-0.2c0.7-0.2,0.9-0.5,1.1-1.6l6.2-32.3c0.1-0.4,0.2-0.6,0.5-0.6
		h0.3c0.3,0,0.4,0.2,0.5,0.6l6.3,32.9c0.2,0.8,0.4,0.9,1,1.1l0.5,0.1c0.2,0.1,0.3,0.2,0.3,0.4v0.1c0,0.2-0.1,0.3-0.2,0.3h-6.6
		c-0.2,0-0.3-0.1-0.3-0.3v-0.1c0-0.2,0.1-0.3,0.3-0.4l0.5-0.1c0.5-0.1,0.7-0.3,0.7-0.6c0-0.1,0-0.2-0.1-0.4l-1.4-7.6h-5.9l-1.3,7.2
		c-0.1,0.3-0.1,0.4-0.1,0.5c0,0.4,0.3,0.7,0.9,0.9l0.5,0.2c0.2,0.1,0.2,0.2,0.2,0.4v0.1c0,0.2-0.1,0.3-0.3,0.3h-4
		C641.6,150.8,641.5,150.7,641.5,150.5z M651.5,140.4l-2.7-14.8h-0.1l-2.8,14.8H651.5z"/>
	<path class="st5" d="M660.8,150.5v-0.1c0-0.2,0.1-0.3,0.3-0.4l0.8-0.2c1.1-0.3,1.3-0.4,1.3-1v-32.1h-0.8c-2.3,0-2.6,0.9-3.4,4.5
		l-0.7,3.3c-0.1,0.2-0.2,0.3-0.3,0.3h-0.2c-0.2,0-0.3-0.1-0.3-0.2v-8.5c0-0.3,0.2-0.4,0.4-0.4h14.4c0.3,0,0.4,0.2,0.4,0.4v8.5
		c0,0.2-0.1,0.2-0.2,0.2h-0.2c-0.2,0-0.3-0.1-0.4-0.3l-0.7-3.3c-0.8-3.7-1.1-4.5-3.4-4.5H667v32.1c0,0.6,0.2,0.7,1.3,1l0.8,0.2
		c0.2,0.1,0.3,0.2,0.3,0.4v0.1c0,0.2-0.1,0.3-0.2,0.3H661C660.9,150.8,660.8,150.7,660.8,150.5z"/>
	<path class="st5" d="M674.7,150.5v-0.1c0-0.2,0.1-0.3,0.3-0.4l0.5-0.1c0.7-0.2,0.8-0.3,0.8-0.9v-31.7c0-0.6-0.1-0.7-0.8-0.9
		l-0.5-0.1c-0.2-0.1-0.3-0.2-0.3-0.4V116c0-0.1,0.1-0.2,0.2-0.2h6.5c0.2,0,0.3,0.1,0.3,0.2v0.1c0,0.2-0.1,0.3-0.3,0.4l-0.5,0.1
		c-0.7,0.2-0.8,0.3-0.8,0.9v31.7c0,0.6,0.1,0.7,0.8,0.9l0.5,0.1c0.2,0.1,0.3,0.2,0.3,0.4v0.1c0,0.2-0.1,0.3-0.3,0.3h-6.5
		C674.7,150.8,674.7,150.7,674.7,150.5z"/>
	<path class="st5" d="M684.9,143.3v-20.1c0-4.9,2.6-8,6.7-8c4.2,0,6.8,3,6.8,8v20.1c0,4.9-2.6,8-6.8,8
		C687.5,151.3,684.9,148.2,684.9,143.3z M694.5,146.2v-25.8c0-3-0.8-4.1-2.9-4.1c-2.1,0-2.8,1.1-2.8,4.1v25.8c0,3,0.8,4.1,2.8,4.1
		C693.7,150.3,694.5,149.2,694.5,146.2z"/>
	<path class="st5" d="M714.7,150.7l-10.4-32.5h-0.1v30.3c0,0.9,0.2,1.2,0.8,1.4l0.5,0.2c0.2,0.1,0.2,0.2,0.2,0.4v0.1
		c0,0.2-0.1,0.3-0.3,0.3h-3.7c-0.2,0-0.2-0.1-0.2-0.3v-0.1c0-0.2,0.1-0.3,0.2-0.4l0.5-0.2c0.7-0.2,0.8-0.5,0.8-1.4v-31.1
		c0-0.6-0.1-0.7-0.8-0.9l-0.5-0.1c-0.2-0.1-0.3-0.2-0.3-0.4V116c0-0.1,0.1-0.2,0.2-0.2h5.5c0.3,0,0.4,0.1,0.4,0.3l6.5,20.6h0.1V118
		c0-0.9-0.2-1.2-0.8-1.4l-0.5-0.2c-0.2-0.1-0.2-0.2-0.2-0.4V116c0-0.1,0.1-0.2,0.3-0.2h3.7c0.2,0,0.2,0.1,0.2,0.2v0.1
		c0,0.2-0.1,0.3-0.2,0.4l-0.5,0.2c-0.7,0.2-0.8,0.5-0.8,1.4v32.7c0,0.4-0.1,0.4-0.3,0.4H715C714.9,151.2,714.8,151.1,714.7,150.7z"
		/>
</g>
</svg>
